<?xml version="1.0" standalone="no"?>
<!DOCTYPE svg PUBLIC "-//W3C//DTD SVG 20010904//EN"
 "http://www.w3.org/TR/2001/REC-SVG-20010904/DTD/svg10.dtd">
<svg version="1.0" xmlns="http://www.w3.org/2000/svg"
 width="3071.000000pt" height="3071.000000pt" viewBox="0 0 3071.000000 3071.000000"
 preserveAspectRatio="xMidYMid meet">
<metadata>
Created by potrace 1.14, written by Peter Selinger 2001-2017
</metadata>
<g transform="translate(0.000000,3071.000000) scale(0.100000,-0.100000)"
fill="#000000" stroke="none">
<path d="M16094 30142 c11 -10 -24 -32 -40 -25 -12 4 -15 3 -10 -5 8 -14 5
-15 -18 -6 -9 3 -14 10 -11 14 3 5 -6 3 -19 -3 -13 -7 -22 -15 -20 -19 6 -10
4 -10 -74 -12 -48 -1 -66 -5 -73 -18 -6 -11 -18 -15 -39 -12 -21 4 -32 1 -36
-10 -3 -9 -10 -13 -15 -10 -5 3 -9 0 -9 -7 0 -10 -3 -10 -11 -2 -9 9 -19 8
-40 -3 -16 -8 -29 -19 -29 -25 0 -6 -6 -7 -12 -2 -18 11 -46 5 -69 -15 -11 -9
-27 -17 -37 -17 -10 0 -16 -7 -16 -17 1 -13 -2 -15 -15 -9 -18 9 -44 3 -36 -9
3 -4 -3 -14 -12 -21 -9 -8 -14 -9 -10 -3 4 7 -18 10 -68 10 -45 0 -75 -4 -75
-11 0 -5 -4 -5 -8 2 -4 7 -19 12 -32 11 -41 -2 -50 1 -50 17 0 12 -4 14 -19 5
-16 -8 -22 -6 -30 7 -7 12 -10 13 -11 4 0 -7 -6 -11 -15 -7 -8 3 -15 0 -15 -7
0 -7 -9 1 -19 16 -20 31 -30 35 -41 17 -6 -9 -10 -7 -14 8 -7 20 -56 38 -56
20 0 -5 -4 -7 -10 -3 -5 3 -25 6 -45 7 -19 1 -35 5 -35 9 0 5 -10 13 -21 20
-16 8 -20 8 -14 -1 5 -8 1 -8 -13 1 -12 7 -18 17 -15 22 4 6 -5 7 -21 3 -21
-5 -26 -4 -20 6 6 10 4 10 -8 0 -14 -11 -18 -10 -27 5 -7 13 -19 19 -40 17
-17 -1 -31 2 -31 8 0 5 -4 7 -9 4 -5 -4 -11 -1 -13 5 -2 7 -16 13 -31 15 -17
2 -25 -1 -21 -8 4 -6 -2 -6 -15 1 -15 8 -27 9 -40 1 -14 -7 -22 -7 -26 0 -5 8
-11 8 -19 1 -7 -6 -16 -7 -20 -3 -12 11 -126 10 -126 -2 0 -6 -4 -5 -9 2 -9
15 -17 15 -43 1 -11 -6 -19 -5 -23 1 -5 8 -11 8 -20 0 -9 -8 -15 -8 -20 0 -6
10 -45 7 -64 -4 -5 -4 -13 -2 -16 4 -5 8 -12 7 -23 -2 -9 -7 -13 -8 -9 -2 9
15 -75 13 -85 -1 -5 -6 -8 -6 -8 1 0 6 -13 11 -30 11 -18 0 -27 -4 -23 -11 4
-6 0 -6 -8 1 -12 10 -17 8 -27 -8 -11 -17 -16 -19 -30 -8 -9 8 -14 10 -10 5 8
-9 2 -16 -50 -58 -18 -15 -32 -30 -32 -33 1 -17 -1 -18 -10 -5 -6 9 -10 11
-10 3 0 -7 -7 -10 -15 -7 -9 4 -15 0 -15 -10 0 -9 -7 -16 -16 -16 -8 0 -13 -4
-9 -9 3 -6 -4 -15 -15 -21 -14 -8 -19 -18 -16 -35 3 -18 0 -23 -13 -20 -14 3
-17 -3 -14 -32 2 -30 0 -33 -13 -22 -8 7 -14 8 -13 3 4 -25 -4 -32 -43 -32
-24 0 -47 -1 -53 -2 -5 -1 -14 -2 -18 -1 -5 1 -6 -3 -2 -8 3 -6 -4 -15 -16
-21 -12 -7 -19 -8 -16 -3 7 12 -125 9 -143 -2 -9 -5 -11 -4 -6 3 4 7 2 12 -4
12 -6 0 -8 5 -5 10 4 6 -8 10 -27 11 -18 0 -48 2 -65 3 -22 3 -31 0 -26 -8 4
-7 1 -6 -8 1 -11 9 -19 9 -26 2 -8 -8 -13 -7 -18 2 -6 8 -4 10 6 4 8 -4 5 1
-6 12 -11 11 -23 16 -26 10 -4 -5 -10 -4 -14 3 -6 9 -9 9 -15 0 -5 -8 -17 -1
-39 20 -17 17 -28 36 -25 42 5 7 2 8 -6 3 -23 -14 -63 -12 -80 5 -9 9 -34 15
-63 16 -43 1 -52 -5 -48 -28 1 -7 -38 -2 -47 6 -2 3 -14 0 -25 -5 -15 -8 -22
-8 -28 2 -5 8 -9 9 -9 3 0 -12 -41 -11 -59 1 -6 3 -11 2 -11 -4 0 -5 -9 -9
-20 -8 -11 1 -20 5 -20 10 0 5 -7 4 -15 -3 -12 -10 -18 -10 -29 -1 -10 9 -16
9 -21 1 -5 -7 -12 -5 -23 7 -24 25 -41 27 -61 6 -9 -10 -26 -18 -38 -17 -13 1
-23 -4 -23 -11 0 -7 -7 -15 -15 -19 -8 -3 -15 0 -15 7 0 8 -3 8 -9 -2 -6 -10
-10 -10 -16 -1 -5 8 -11 6 -20 -7 -7 -10 -11 -22 -7 -28 3 -5 -1 -4 -9 2 -12
10 -18 10 -27 1 -8 -8 -12 -9 -12 -1 0 6 -9 9 -20 6 -11 -3 -17 -9 -14 -14 3
-5 0 -9 -6 -9 -6 0 -8 -5 -4 -12 5 -7 3 -8 -7 -2 -24 15 -83 10 -100 -8 -9
-10 -19 -15 -23 -11 -3 3 -6 1 -6 -6 0 -7 -4 -10 -9 -7 -5 3 -14 -1 -21 -9 -7
-8 -16 -12 -21 -9 -5 3 -9 2 -8 -3 4 -20 -2 -34 -12 -28 -6 4 -13 -2 -15 -12
-4 -12 -13 -19 -26 -18 -20 1 -58 -24 -52 -35 1 -3 -4 -11 -12 -18 -10 -9 -14
-9 -14 -1 0 8 -4 9 -13 0 -8 -6 -16 -8 -20 -5 -3 3 -8 -4 -12 -15 -3 -12 -11
-19 -16 -16 -5 3 -7 -7 -5 -24 2 -21 0 -28 -10 -24 -9 3 -14 -2 -14 -13 0 -9
-3 -14 -6 -11 -8 8 -44 -31 -44 -46 0 -6 -3 -8 -6 -4 -3 3 -19 -8 -35 -26 -16
-17 -29 -27 -29 -21 0 17 -39 14 -52 -4 -11 -14 -29 -18 -98 -18 -72 0 -88 3
-103 20 -15 16 -21 18 -36 9 -11 -7 -22 -9 -26 -5 -10 10 -29 9 -37 -3 -5 -6
-8 -5 -8 3 0 8 -9 11 -25 8 -15 -3 -28 1 -33 9 -9 17 -82 27 -82 11 0 -6 -5
-4 -10 4 -8 13 -10 13 -10 1 0 -12 -3 -12 -12 -3 -15 15 -31 16 -22 0 5 -7 3
-8 -6 -3 -19 12 -80 14 -73 2 4 -6 1 -7 -8 -1 -21 13 -39 14 -39 1 0 -8 -4 -7
-12 1 -15 15 -31 16 -22 0 5 -7 3 -8 -6 -3 -19 12 -80 14 -73 2 4 -6 1 -7 -8
-1 -21 13 -39 14 -39 2 0 -6 -7 -4 -17 3 -13 11 -17 11 -20 1 -3 -6 -10 -9
-16 -5 -15 9 -97 10 -97 1 0 -4 -6 -5 -14 -2 -7 3 -16 -2 -20 -11 -3 -9 -10
-14 -15 -10 -5 3 -12 1 -16 -5 -4 -6 -12 -7 -18 -3 -25 16 -49 13 -54 -6 -3
-12 -11 -17 -19 -14 -8 3 -14 1 -12 -4 4 -12 -72 -89 -84 -85 -5 1 -7 -2 -4
-7 3 -5 -1 -14 -8 -20 -10 -8 -16 -9 -21 -1 -10 16 -25 12 -18 -7 4 -11 3 -14
-5 -9 -7 4 -12 3 -12 -2 0 -5 -12 -9 -27 -9 -33 1 -73 -22 -73 -41 0 -7 -3
-11 -7 -9 -5 3 -14 -1 -21 -9 -7 -8 -10 -14 -7 -14 3 0 -5 -10 -16 -21 -15
-15 -18 -23 -9 -29 15 -10 15 -21 -2 -31 -11 -7 -11 -9 1 -9 11 0 11 -3 1 -15
-6 -8 -8 -20 -4 -26 4 -8 3 -9 -4 -5 -7 4 -25 -8 -43 -26 -17 -18 -28 -27 -24
-20 3 6 1 12 -4 12 -6 0 -11 -5 -11 -11 0 -5 -4 -7 -10 -4 -5 3 -10 -1 -10 -9
0 -9 -9 -16 -20 -16 -14 0 -18 -5 -13 -17 4 -11 3 -14 -5 -9 -7 4 -12 2 -12
-6 0 -10 -2 -10 -8 0 -6 9 -14 7 -31 -9 -14 -13 -30 -19 -42 -16 -13 3 -28 -2
-40 -14 -21 -21 -34 -25 -23 -8 3 6 -5 3 -20 -6 -14 -10 -26 -20 -26 -24 0 -4
-9 -7 -20 -8 -11 -1 -20 4 -20 10 0 8 -3 8 -8 2 -10 -14 -32 -17 -32 -4 0 5
-5 7 -10 4 -17 -11 -62 -16 -56 -7 6 10 -24 9 -41 -1 -6 -4 -14 -3 -18 3 -4 6
-12 7 -18 3 -18 -11 -60 -10 -76 1 -11 8 -13 8 -8 0 3 -6 0 -11 -8 -11 -8 0
-14 3 -13 6 2 22 -11 26 -97 27 -66 1 -92 -2 -88 -10 5 -8 3 -8 -8 0 -15 12
-49 15 -49 4 0 -11 -53 -32 -59 -23 -9 12 -33 15 -26 3 4 -7 -3 -9 -19 -6 -16
3 -25 0 -23 -7 1 -6 -11 -14 -28 -17 -18 -4 -29 -12 -27 -19 2 -9 -3 -11 -13
-8 -8 4 -15 2 -15 -3 0 -6 -9 -6 -25 0 -20 8 -25 6 -25 -6 0 -8 -4 -12 -10 -9
-5 3 -10 -2 -10 -12 0 -10 -4 -14 -8 -8 -4 6 -14 9 -22 9 -8 -1 -23 -2 -33 -3
-9 0 -16 -5 -15 -10 2 -5 -1 -9 -6 -9 -5 0 -13 -6 -17 -14 -5 -7 -9 -8 -9 -2
0 13 -31 15 -47 2 -7 -6 -10 -14 -7 -19 3 -5 -2 -9 -10 -9 -9 0 -16 -5 -16
-11 0 -6 -7 -9 -14 -6 -10 4 -13 1 -9 -9 3 -8 -1 -22 -8 -31 -12 -14 -12 -16
1 -8 8 4 4 -3 -10 -16 -13 -13 -28 -23 -32 -21 -5 1 -8 -4 -8 -11 0 -19 -40
-49 -66 -49 -13 0 -23 -3 -22 -7 2 -19 -4 -31 -14 -29 -7 2 -12 -3 -10 -11 2
-9 -4 -12 -18 -8 -12 3 -18 1 -14 -5 4 -6 -10 -26 -30 -44 -21 -19 -33 -34
-29 -35 4 0 -2 -4 -15 -9 -20 -9 -21 -12 -11 -32 6 -13 8 -20 4 -16 -9 8 -35
-14 -28 -24 2 -5 -6 -8 -18 -8 -12 0 -20 -3 -16 -6 8 -8 -25 -44 -41 -44 -7 0
-10 -4 -7 -10 3 -5 1 -10 -5 -10 -12 0 -34 -48 -31 -67 1 -7 -7 -10 -20 -8
-17 4 -19 2 -9 -10 8 -10 9 -15 2 -15 -6 0 -9 -6 -6 -14 3 -8 -3 -16 -15 -19
-12 -3 -21 0 -22 6 0 7 -5 2 -11 -11 -6 -12 -16 -21 -22 -19 -18 7 -46 -12
-46 -31 0 -10 -3 -13 -8 -6 -9 13 -55 13 -64 0 -5 -7 -8 -7 -8 1 0 8 -9 11
-22 9 -13 -3 -27 -5 -31 -5 -5 -1 -5 -5 -2 -11 3 -5 3 -10 -2 -11 -4 0 -16 -2
-25 -4 -10 -2 -18 2 -18 8 0 7 -4 6 -9 -2 -8 -13 -12 -13 -27 0 -10 8 -15 9
-11 3 5 -8 -14 -11 -63 -9 -38 1 -67 -2 -64 -6 7 -12 -14 -19 -59 -22 -19 -1
-33 -5 -31 -9 3 -4 -5 -12 -17 -18 -17 -10 -20 -9 -13 2 6 10 5 11 -7 1 -12
-10 -18 -10 -27 -1 -9 9 -12 9 -12 0 0 -10 -5 -10 -20 -2 -15 8 -23 6 -39 -11
-15 -17 -28 -20 -60 -17 -23 2 -41 -1 -41 -5 0 -5 -6 -5 -13 1 -14 12 -41 0
-43 -18 -3 -21 -4 -22 -18 -11 -11 9 -18 6 -36 -16 -12 -15 -18 -22 -14 -14 5
9 3 12 -4 7 -7 -4 -12 -14 -12 -22 0 -8 -7 -14 -15 -14 -8 0 -14 -5 -13 -12 3
-14 -24 -18 -33 -5 -4 6 -10 1 -13 -11 -8 -23 -36 -33 -60 -20 -10 6 -16 5
-16 -2 0 -6 -5 -8 -12 -4 -6 4 -8 3 -5 -3 4 -6 0 -17 -9 -24 -13 -10 -17 -10
-24 1 -7 11 -11 8 -21 -13 -6 -14 -15 -24 -19 -22 -5 3 -10 -2 -14 -10 -3 -8
0 -15 6 -15 6 0 -2 -12 -18 -27 -16 -15 -35 -26 -42 -25 -15 3 -44 -23 -35
-32 4 -3 -1 -6 -9 -6 -10 0 -14 -8 -12 -26 2 -18 -2 -24 -11 -20 -7 2 -15 -4
-18 -15 -3 -10 0 -19 5 -19 6 0 5 -6 -2 -15 -8 -10 -9 -15 -2 -15 7 0 9 -7 5
-17 -10 -26 -29 -43 -38 -35 -5 4 -4 0 1 -8 20 -36 -13 -113 -44 -102 -7 2
-11 -2 -10 -9 2 -7 -8 -18 -22 -26 -14 -7 -20 -13 -13 -13 6 0 11 -9 10 -20
-1 -11 -7 -20 -14 -20 -13 0 -17 -11 -13 -43 1 -10 -4 -16 -12 -15 -8 2 -13
-6 -12 -19 0 -13 -3 -23 -8 -23 -5 0 -6 -6 -2 -12 4 -7 4 -10 -1 -6 -10 9 -45
-9 -45 -24 0 -19 -33 -38 -47 -26 -9 7 -13 7 -13 -2 0 -9 -4 -9 -17 1 -9 8
-14 9 -10 3 4 -7 0 -15 -9 -18 -8 -3 -12 -11 -8 -17 5 -8 3 -9 -7 -3 -21 13
-39 14 -39 2 0 -6 -7 -5 -16 3 -13 10 -17 10 -25 -2 -7 -11 -9 -11 -9 0 0 10
-3 11 -13 2 -8 -6 -17 -7 -21 -3 -4 4 -6 0 -4 -8 2 -8 -5 -14 -17 -15 -11 0
-26 -4 -34 -9 -10 -6 -12 -5 -7 2 5 8 0 11 -14 9 -12 -2 -26 -10 -31 -18 -5
-8 -9 -10 -9 -5 0 6 -7 1 -15 -10 -14 -17 -15 -17 -9 -1 6 17 5 18 -14 6 -11
-7 -18 -17 -16 -21 5 -8 -10 -12 -33 -9 -7 1 -22 -8 -35 -21 -14 -14 -23 -18
-26 -9 -3 9 -7 9 -18 0 -10 -8 -14 -8 -14 0 0 6 -5 11 -11 11 -5 0 -7 -4 -4
-10 3 -5 0 -7 -8 -4 -8 3 -17 -2 -21 -11 -3 -10 -12 -15 -21 -11 -8 3 -15 2
-15 -2 0 -4 -27 -5 -60 -2 -50 5 -61 3 -65 -11 -4 -11 -15 -16 -35 -14 -24 2
-30 -1 -30 -17 0 -10 -4 -16 -10 -13 -5 3 -10 2 -10 -3 0 -5 -12 -17 -26 -27
-15 -9 -24 -12 -20 -7 3 6 1 14 -5 18 -7 4 -9 3 -6 -3 7 -11 -43 -59 -56 -55
-5 1 -6 -2 -3 -7 4 -5 1 -13 -5 -17 -8 -4 -7 -9 2 -15 10 -6 11 -9 2 -9 -7 0
-13 -7 -13 -16 0 -8 -4 -13 -9 -10 -5 3 -11 -1 -15 -9 -3 -8 -1 -15 5 -15 6 0
3 -7 -6 -16 -13 -14 -18 -14 -32 -2 -9 7 -14 8 -10 2 10 -17 -22 -39 -49 -36
-19 3 -23 0 -18 -13 4 -9 3 -15 -2 -14 -24 4 -30 -3 -26 -31 3 -23 0 -30 -12
-30 -9 0 -16 -4 -17 -10 -3 -37 -2 -68 4 -77 4 -7 3 -14 -3 -18 -5 -3 -10 -3
-10 2 -1 20 -20 -25 -20 -46 0 -16 -4 -21 -14 -18 -10 4 -13 1 -9 -9 3 -7 1
-14 -5 -14 -6 0 -8 -9 -5 -20 4 -14 0 -20 -10 -20 -9 0 -14 -7 -13 -17 3 -17
-33 -60 -47 -55 -6 2 -12 -38 -8 -61 0 -4 -4 -6 -11 -5 -7 2 -15 -10 -18 -27
-4 -17 -12 -29 -19 -27 -10 2 -12 -4 -7 -23 5 -19 3 -25 -9 -25 -9 0 -13 -4
-10 -10 3 -5 1 -10 -6 -10 -6 0 -9 -8 -6 -20 5 -18 -3 -25 -25 -21 -4 0 -5 -6
-2 -14 4 -9 0 -15 -9 -15 -9 0 -19 -9 -22 -21 -4 -11 -9 -18 -12 -15 -7 6 -53
-44 -53 -58 0 -6 -4 -5 -9 3 -6 9 -11 10 -15 2 -4 -6 -12 -9 -17 -6 -5 4 -9
-1 -9 -10 0 -11 -5 -15 -14 -12 -7 3 -19 0 -25 -6 -7 -7 -11 -7 -11 -1 0 11
-20 11 -57 -1 -13 -4 -21 -11 -18 -15 3 -4 -14 -8 -38 -8 -64 0 -70 -1 -64
-15 4 -10 -6 -13 -40 -11 -34 1 -43 -1 -39 -12 5 -13 -10 -19 -40 -15 -7 1
-14 -6 -18 -14 -3 -9 -10 -13 -16 -10 -5 3 -10 1 -10 -5 0 -7 -6 -10 -12 -7
-7 2 -21 -5 -31 -16 -12 -14 -17 -16 -17 -6 -1 8 -10 3 -25 -13 -13 -16 -26
-24 -30 -19 -8 13 -61 -4 -57 -18 2 -8 -4 -10 -17 -6 -11 3 -22 1 -26 -5 -3
-6 -11 -7 -17 -4 -6 4 -8 2 -4 -4 3 -6 2 -13 -3 -16 -5 -4 -13 -2 -16 4 -5 8
-12 7 -22 -2 -9 -7 -18 -12 -20 -10 -9 6 -23 1 -18 -8 6 -10 -6 -14 -37 -11
-9 1 -19 -7 -23 -19 -3 -11 -10 -18 -15 -15 -4 3 -11 -2 -14 -11 -4 -11 -14
-15 -31 -12 -13 3 -22 1 -19 -3 3 -5 0 -9 -6 -9 -6 0 -8 -4 -5 -10 3 -5 -1
-10 -10 -10 -9 0 -14 -3 -12 -7 3 -5 -1 -13 -8 -20 -11 -10 -14 -10 -18 0 -3
8 -10 6 -23 -7 -12 -11 -13 -16 -4 -11 9 5 12 4 7 -1 -5 -5 -13 -10 -18 -10
-5 -1 -14 -2 -20 -3 -5 0 -8 -5 -5 -10 3 -5 -1 -11 -9 -14 -8 -4 -12 -15 -10
-27 2 -11 1 -19 -3 -16 -4 2 -15 -7 -25 -20 -10 -13 -14 -24 -9 -24 5 0 9 -7
9 -15 0 -8 -4 -15 -9 -15 -5 0 -3 -6 4 -14 7 -8 16 -12 21 -9 4 2 7 -5 8 -16
1 -12 1 -31 2 -44 1 -12 -2 -28 -7 -35 -4 -6 -2 -12 3 -12 6 0 11 -5 11 -11 0
-5 -6 -7 -12 -3 -9 5 -9 2 1 -9 10 -13 10 -17 1 -17 -10 0 -10 -3 0 -15 9 -11
9 -15 1 -15 -9 0 -9 -5 0 -21 8 -16 8 -23 -1 -29 -9 -6 -9 -9 1 -13 9 -4 10
-6 2 -6 -7 -1 -10 -7 -8 -13 11 -31 12 -88 1 -88 -6 0 -4 -5 4 -10 8 -5 10
-10 4 -10 -8 0 -9 -11 -4 -34 7 -30 4 -37 -35 -74 -24 -22 -40 -43 -37 -46 3
-3 0 -6 -7 -6 -8 0 -10 -7 -6 -20 5 -14 2 -20 -9 -20 -9 0 -16 -8 -16 -17 -1
-24 -25 -55 -35 -45 -4 4 -3 -1 2 -12 8 -15 2 -26 -31 -61 -28 -29 -45 -40
-53 -33 -7 6 -14 5 -18 -2 -3 -5 -3 -10 2 -10 4 0 0 -5 -10 -11 -9 -5 -22 -7
-27 -4 -6 3 -10 0 -10 -7 0 -9 -3 -9 -10 2 -8 12 -12 13 -19 2 -4 -8 -12 -14
-17 -15 -5 -1 -8 -5 -7 -9 1 -3 -4 -9 -13 -12 -9 -4 -12 -2 -8 5 4 8 0 7 -15
0 -11 -7 -21 -17 -21 -22 0 -6 -6 -9 -14 -6 -7 3 -19 0 -26 -6 -10 -9 -11 -9
-5 2 5 9 4 12 -3 7 -7 -4 -12 -14 -12 -23 0 -10 -6 -13 -16 -9 -10 4 -25 -5
-42 -24 -15 -16 -32 -30 -40 -30 -7 0 -11 -4 -7 -9 3 -6 -4 -15 -15 -21 -11
-6 -18 -15 -16 -19 3 -5 -7 -8 -22 -9 -54 0 -62 -2 -62 -16 0 -8 -11 -13 -27
-12 -17 0 -27 -4 -25 -12 1 -7 -5 -12 -13 -12 -8 0 -15 -7 -15 -15 0 -14 -12
-20 -33 -16 -4 1 -3 -7 2 -17 8 -16 4 -25 -25 -50 -20 -18 -33 -36 -30 -41 4
-6 -4 -8 -19 -5 -14 2 -25 0 -25 -6 0 -6 -4 -8 -10 -5 -5 3 -10 2 -10 -4 0
-14 -41 -51 -51 -45 -4 2 -6 -5 -4 -17 5 -24 -12 -52 -25 -44 -5 3 -5 -8 0
-24 6 -23 5 -28 -9 -27 -9 0 -15 -5 -13 -11 2 -12 -11 -18 -32 -14 -5 1 -6 -7
-3 -19 3 -11 0 -20 -6 -20 -8 0 -8 -3 -2 -8 15 -10 12 -34 -5 -41 -17 -7 -25
-121 -8 -121 5 0 6 6 2 13 -6 9 -5 9 7 0 16 -13 19 -39 6 -60 -4 -6 -3 -14 1
-17 10 -6 10 -46 -1 -63 -4 -6 -3 -15 3 -18 8 -5 7 -11 -1 -21 -8 -10 -8 -14
0 -14 6 0 10 -5 8 -12 -3 -16 -21 -37 -27 -33 -3 2 -7 -10 -8 -26 -2 -22 1
-29 10 -24 7 4 1 -4 -13 -17 -22 -19 -26 -31 -24 -69 1 -25 5 -52 10 -59 5 -9
4 -11 -3 -6 -8 5 -12 -1 -12 -14 0 -14 4 -19 13 -14 9 6 9 4 1 -7 -6 -8 -10
-24 -8 -37 2 -14 -2 -25 -11 -28 -8 -4 -12 -10 -9 -15 5 -8 -9 -13 -28 -10 -5
0 -8 -4 -8 -10 0 -8 -5 -8 -15 1 -10 8 -15 9 -15 2 0 -6 -7 -9 -15 -6 -10 4
-15 0 -15 -16 0 -11 -4 -18 -10 -15 -5 3 -15 3 -21 -1 -8 -5 -8 -9 1 -14 13
-8 -1 -46 -17 -43 -4 0 -7 -3 -6 -8 2 -5 -2 -9 -8 -9 -7 0 -17 -8 -24 -17 -9
-12 -24 -16 -50 -15 -30 2 -36 0 -32 -12 4 -9 3 -15 -2 -13 -10 3 -107 -95
-104 -105 2 -4 -6 -5 -17 -3 -12 2 -18 0 -14 -6 3 -6 -5 -19 -18 -31 -12 -11
-22 -25 -20 -31 2 -6 -4 -5 -12 3 -13 10 -16 10 -16 -1 0 -11 -2 -11 -10 1 -8
12 -10 11 -10 -7 0 -15 -5 -21 -14 -17 -8 3 -16 -3 -19 -16 -3 -12 -10 -19
-16 -15 -7 3 -11 -2 -11 -14 0 -14 -5 -19 -15 -15 -9 4 -15 0 -15 -9 0 -9 -12
-18 -29 -22 -16 -3 -32 -12 -34 -19 -3 -8 -17 -11 -34 -9 -30 4 -69 -22 -70
-47 0 -8 -4 -24 -9 -34 -5 -14 -4 -17 4 -12 8 5 10 2 6 -9 -4 -9 -9 -13 -12
-11 -3 3 -11 1 -18 -5 -10 -8 -11 -16 -3 -30 8 -16 6 -19 -9 -19 -15 0 -19 -6
-17 -25 2 -15 -4 -30 -15 -38 -18 -13 -22 -80 -5 -107 5 -9 4 -11 -4 -6 -15
10 -11 -65 4 -76 6 -5 6 -8 -1 -8 -8 0 -11 -16 -10 -41 2 -29 -2 -43 -13 -48
-12 -5 -16 -22 -16 -78 0 -39 3 -69 7 -67 4 2 3 -9 -2 -25 -4 -16 -6 -32 -2
-35 3 -3 0 -6 -7 -6 -7 0 -9 -4 -6 -10 3 -5 0 -10 -8 -10 -7 0 -14 -7 -14 -15
0 -8 4 -15 8 -15 4 0 4 -13 -1 -30 -6 -20 -5 -30 2 -30 6 0 6 -6 -2 -15 -10
-12 -10 -15 0 -15 10 0 10 -3 1 -14 -9 -11 -9 -16 0 -21 8 -6 7 -10 -2 -17
-10 -7 -11 -11 -2 -14 7 -3 9 -12 6 -20 -3 -7 -9 -12 -13 -9 -11 7 -20 -8 -22
-38 -1 -14 -6 -23 -10 -21 -4 3 -8 0 -8 -5 0 -6 -7 -11 -15 -11 -8 0 -15 -4
-15 -9 0 -5 -8 -17 -17 -27 -10 -10 -18 -27 -18 -38 -1 -12 -6 -20 -12 -19 -6
1 -13 -7 -16 -17 -3 -12 -1 -17 5 -14 5 3 4 -3 -4 -15 -7 -12 -19 -21 -26 -21
-7 0 -10 -4 -7 -10 3 -5 1 -10 -5 -10 -15 0 -41 -26 -33 -34 4 -3 1 -6 -5 -6
-7 0 -12 -7 -12 -16 0 -8 -7 -22 -15 -30 -8 -8 -12 -21 -8 -30 4 -10 -2 -17
-16 -21 -14 -4 -20 -11 -16 -21 4 -10 0 -13 -13 -10 -22 6 -57 -17 -47 -31 4
-7 0 -8 -11 -4 -34 13 -84 7 -100 -13 -8 -10 -12 -12 -8 -4 7 12 5 13 -8 3 -8
-7 -18 -10 -22 -6 -4 4 -9 -2 -12 -14 -4 -15 -11 -20 -22 -16 -10 4 -14 3 -10
-2 4 -4 -1 -15 -11 -24 -15 -13 -18 -30 -18 -90 0 -57 -4 -77 -17 -86 -9 -7
-16 -17 -16 -24 0 -6 -6 -10 -13 -8 -7 1 -12 -8 -11 -25 1 -16 -3 -25 -11 -22
-12 5 -15 -9 -15 -58 0 -18 -5 -28 -14 -28 -7 0 -16 -9 -19 -20 -3 -11 0 -20
5 -20 6 0 5 -6 -2 -15 -7 -8 -8 -15 -3 -15 5 0 9 -9 9 -20 0 -11 -3 -20 -6
-20 -10 0 -6 -44 4 -52 6 -4 5 -12 -3 -21 -9 -12 -9 -16 1 -20 10 -4 10 -6 -1
-6 -11 -1 -11 -4 -1 -16 7 -8 8 -15 3 -15 -5 0 -9 -9 -9 -20 0 -11 4 -20 8
-20 5 0 4 -9 -2 -20 -8 -15 -8 -20 2 -20 9 0 9 -3 -2 -10 -11 -7 -11 -10 -2
-10 8 0 10 -5 6 -12 -12 -19 -12 -48 -1 -48 5 0 3 -8 -4 -17 -9 -11 -10 -14
-2 -9 9 5 11 2 7 -8 -3 -8 -11 -17 -19 -19 -19 -8 -16 -59 5 -64 17 -5 20 -28
6 -51 -4 -7 -2 -12 4 -12 6 0 8 -5 4 -12 -12 -19 -12 -48 0 -48 6 0 4 -5 -4
-10 -8 -5 -10 -10 -5 -10 6 0 10 -11 10 -25 0 -14 -2 -25 -5 -25 -3 0 -6 -9
-6 -20 0 -11 4 -20 9 -20 4 0 5 -5 1 -12 -12 -18 -11 -58 1 -58 6 0 7 -3 0 -8
-13 -9 -16 -42 -4 -42 6 0 5 -9 -1 -20 -8 -15 -8 -20 2 -20 7 -1 3 -9 -9 -19
-13 -11 -23 -25 -23 -31 0 -7 -7 -10 -15 -6 -10 4 -15 -1 -15 -15 0 -11 -6
-19 -13 -18 -29 4 -47 -2 -47 -15 0 -8 -5 -18 -12 -22 -7 -5 -8 -2 -3 7 5 8 4
11 0 7 -12 -11 -15 -58 -5 -58 5 0 7 -6 4 -14 -3 -9 -12 -12 -21 -9 -10 4 -14
2 -9 -5 3 -6 2 -13 -4 -17 -7 -4 -7 -12 0 -24 8 -15 0 -29 -43 -72 -28 -30
-51 -57 -49 -61 1 -4 -6 -4 -16 -1 -9 3 -14 3 -10 -1 7 -9 -40 -59 -66 -69
-11 -4 -16 -13 -12 -22 3 -8 0 -15 -7 -15 -8 0 -6 -4 3 -10 13 -9 7 -14 -12
-11 -5 0 -8 -6 -8 -15 0 -8 -4 -13 -9 -10 -5 3 -11 -3 -14 -14 -3 -11 -12 -20
-21 -20 -9 0 -17 -6 -17 -12 -1 -7 -2 -18 -3 -24 0 -7 -13 -24 -27 -38 -24
-24 -45 -96 -29 -96 4 0 7 -7 7 -15 0 -8 -4 -12 -8 -10 -7 5 -36 -25 -31 -32
1 -1 2 -13 2 -25 0 -17 -3 -19 -9 -9 -13 20 -22 -3 -16 -39 4 -23 2 -29 -6
-24 -8 5 -9 3 -4 -6 10 -17 12 -130 2 -137 -4 -2 -4 -9 0 -16 11 -18 10 -61
-1 -69 -8 -5 -7 -8 1 -8 6 0 9 -9 6 -20 -3 -11 1 -28 8 -37 8 -9 9 -14 3 -10
-8 4 -12 -8 -12 -38 -1 -29 3 -45 11 -45 9 0 9 -2 1 -8 -7 -4 -12 -33 -12 -66
0 -48 5 -64 23 -82 13 -13 26 -20 30 -16 4 4 6 2 5 -3 -6 -30 1 -57 14 -52 10
4 14 0 11 -14 -2 -10 0 -19 6 -19 5 0 9 -5 9 -11 0 -5 -5 -7 -10 -4 -11 7 -8
-30 3 -41 4 -4 2 -13 -4 -21 -8 -9 -8 -17 0 -26 6 -8 7 -17 3 -21 -10 -11 -9
-30 3 -38 6 -5 5 -11 -3 -17 -17 -11 -17 -21 0 -32 9 -6 6 -9 -11 -9 -16 0
-21 -4 -17 -15 3 -8 0 -15 -7 -15 -8 0 -6 -4 3 -10 13 -8 12 -10 -3 -10 -10 0
-16 -3 -14 -7 6 -11 -30 -43 -39 -35 -4 4 -4 -3 -1 -15 3 -13 1 -23 -5 -23 -5
0 -7 -4 -4 -8 3 -5 -4 -16 -15 -26 -16 -13 -18 -20 -9 -31 11 -14 -1 -54 -15
-47 -8 4 -35 -25 -29 -31 3 -3 -3 -8 -14 -11 -19 -6 -35 -49 -24 -61 13 -13 7
-47 -10 -56 -10 -5 -18 -21 -18 -34 0 -16 -6 -25 -16 -25 -8 0 -13 -4 -9 -9 3
-5 -4 -12 -15 -16 -11 -4 -18 -9 -16 -13 5 -9 -20 -33 -27 -26 -2 3 -5 -7 -5
-21 0 -14 5 -28 10 -31 12 -7 -10 -34 -28 -34 -8 0 -11 -9 -8 -25 3 -17 0 -24
-8 -23 -8 2 -13 -6 -12 -19 0 -13 -5 -23 -13 -23 -8 0 -11 -5 -8 -10 3 -5 -1
-10 -11 -10 -14 0 -14 -3 -4 -15 11 -13 10 -18 -5 -29 -11 -8 -20 -29 -21 -51
-3 -39 -19 -59 -39 -48 -5 3 -4 0 3 -8 15 -16 16 -33 0 -23 -7 5 -8 3 -2 -7
10 -18 13 -129 2 -123 -4 3 -8 0 -8 -6 0 -6 -4 -9 -9 -5 -20 12 -5 -61 17 -83
23 -23 29 -38 13 -27 -18 11 -8 -60 10 -78 16 -15 17 -22 8 -39 -7 -13 -7 -18
-1 -14 6 3 13 2 17 -4 4 -6 10 -8 14 -6 4 3 8 -1 8 -9 0 -8 -3 -12 -7 -10 -3
2 -6 -5 -6 -15 0 -12 6 -17 19 -14 16 3 18 -1 14 -21 -2 -14 0 -25 4 -25 5 0
15 -13 24 -30 9 -17 11 -30 5 -30 -18 0 -11 -19 15 -42 13 -11 22 -25 19 -29
-13 -22 -12 -49 2 -49 8 0 12 -4 9 -10 -3 -5 -2 -10 4 -10 5 0 8 -9 6 -20 -3
-14 2 -20 14 -20 14 0 18 -6 15 -30 -2 -20 1 -30 10 -30 8 0 16 -9 19 -20 3
-11 1 -20 -5 -20 -5 0 -6 -6 -1 -12 12 -21 12 -38 0 -38 -8 0 -8 -3 -2 -8 6
-4 10 -36 10 -72 0 -61 -11 -94 -27 -83 -4 2 -6 -10 -4 -26 2 -17 -1 -28 -5
-25 -5 3 -12 -2 -15 -10 -3 -9 -11 -13 -16 -10 -6 4 -5 -3 1 -15 8 -15 9 -21
1 -21 -6 0 -8 -5 -5 -10 4 -6 3 -9 -2 -8 -12 4 -54 -28 -46 -35 3 -4 -1 -7
-11 -7 -9 0 -14 -4 -11 -10 3 -5 2 -10 -4 -10 -6 0 -6 -11 -1 -31 5 -18 7 -29
3 -26 -9 9 -32 -39 -29 -60 3 -19 -15 -44 -26 -36 -4 2 -6 -9 -4 -26 3 -24 -1
-31 -21 -36 -21 -5 -23 -8 -12 -21 10 -12 8 -17 -9 -30 -12 -8 -19 -22 -17
-34 3 -17 -4 -23 -25 -22 -10 1 -5 -473 5 -480 6 -5 6 -8 -1 -8 -7 0 -9 -11
-6 -25 2 -14 10 -25 17 -25 8 0 11 -15 10 -44 -1 -35 2 -43 14 -38 9 3 12 1 7
-6 -4 -7 -2 -12 4 -12 6 0 8 -15 5 -41 -4 -36 -3 -40 10 -29 15 13 19 8 15
-23 -1 -10 12 -30 28 -45 27 -25 49 -82 32 -82 -4 0 -5 -11 -2 -25 2 -14 7
-23 10 -21 3 3 11 -2 18 -12 9 -13 10 -20 1 -31 -14 -17 -14 -18 12 -40 12
-10 21 -23 21 -30 0 -6 6 -10 13 -8 6 1 11 -4 10 -10 -3 -12 10 -18 31 -14 5
1 6 -5 3 -14 -9 -21 3 -46 17 -38 6 3 8 3 4 -1 -4 -5 -3 -18 2 -31 5 -14 5
-26 -3 -34 -6 -6 -7 -11 -1 -11 5 0 9 -11 9 -25 0 -14 -4 -25 -10 -25 -5 0 -3
-5 5 -10 11 -7 11 -10 2 -10 -9 0 -10 -5 -2 -19 8 -16 6 -23 -8 -33 -11 -8
-18 -24 -17 -41 1 -19 -1 -25 -9 -17 -16 16 -22 12 -21 -17 1 -16 -7 -36 -17
-46 -10 -10 -16 -23 -12 -28 3 -6 -3 -19 -15 -30 -23 -21 -27 -39 -10 -39 5 0
7 -6 3 -12 -5 -7 -9 -21 -9 -31 -1 -10 -7 -22 -13 -26 -6 -3 -12 -24 -14 -46
-2 -28 -7 -39 -17 -37 -8 2 -11 -3 -8 -12 4 -9 2 -18 -3 -21 -15 -9 -12 -27 3
-19 7 4 9 3 4 -2 -5 -5 -14 -9 -20 -9 -8 0 -12 -17 -12 -45 0 -28 -6 -51 -15
-60 -9 -8 -15 -22 -15 -30 1 -8 -4 -21 -9 -29 -8 -11 -8 -13 0 -8 7 4 11 -7
11 -33 0 -26 -4 -37 -11 -33 -8 5 -8 3 0 -8 6 -8 10 -26 9 -41 -1 -18 2 -25
12 -21 14 6 14 6 17 -49 1 -20 -1 -35 -4 -33 -11 7 -32 -13 -26 -24 4 -6 12
-9 17 -6 9 6 13 -7 9 -39 -1 -11 3 -15 9 -12 10 6 15 -6 12 -26 0 -5 2 -7 7
-7 23 4 29 -5 29 -44 0 -48 18 -91 34 -81 8 4 7 0 0 -14 -9 -17 -6 -24 24 -48
24 -19 32 -31 25 -39 -7 -8 -3 -16 13 -24 23 -12 33 -41 15 -41 -5 0 -3 -6 4
-14 7 -8 16 -12 19 -10 4 2 9 -3 13 -11 3 -8 1 -17 -4 -20 -6 -4 -6 -14 1 -27
8 -15 8 -22 -1 -28 -9 -6 -7 -11 8 -19 11 -6 19 -18 18 -28 -2 -9 6 -25 16
-35 10 -10 18 -28 18 -40 0 -12 3 -18 7 -15 12 13 31 -37 19 -52 -8 -11 -8
-15 2 -18 6 -3 12 -11 12 -19 0 -8 4 -14 9 -14 6 0 8 -9 6 -20 -2 -11 1 -20 6
-20 15 0 39 -27 31 -34 -4 -4 6 -2 21 3 18 7 26 7 22 1 -3 -6 -1 -10 5 -10 7
0 10 -6 7 -14 -4 -10 0 -14 14 -11 16 3 17 1 9 -15 -7 -13 -6 -20 3 -23 9 -3
9 -7 0 -18 -14 -17 -14 -28 -1 -53 7 -13 7 -16 -2 -11 -14 9 -10 -27 5 -37 6
-5 5 -8 -4 -8 -10 0 -11 -3 -3 -13 7 -8 7 -18 2 -27 -13 -20 -12 -33 0 -25 5
3 7 0 4 -9 -3 -8 -12 -12 -20 -9 -10 4 -14 -3 -14 -26 0 -20 -5 -31 -14 -31
-8 0 -16 -7 -20 -15 -3 -8 -1 -15 5 -15 6 0 9 -6 7 -12 -3 -7 -10 -13 -17 -13
-23 0 -31 -29 -15 -54 9 -13 12 -21 7 -18 -6 4 -10 -96 -9 -262 0 -236 2 -268
15 -267 16 1 17 -6 6 -36 -5 -13 -2 -16 17 -11 16 3 19 2 10 -5 -11 -7 -11
-10 3 -15 13 -5 14 -11 5 -27 -9 -16 -8 -22 5 -26 8 -3 15 -13 15 -21 0 -8 5
-11 12 -7 7 5 8 3 3 -6 -12 -19 -14 -71 -3 -64 14 9 29 -17 22 -37 -3 -11 3
-18 17 -22 11 -3 18 -10 15 -15 -8 -14 11 -62 24 -62 15 0 41 -26 33 -34 -4
-3 8 -6 26 -6 19 0 30 -4 26 -10 -3 -6 1 -10 10 -10 9 0 13 -4 10 -10 -3 -5
-1 -10 5 -10 18 0 37 -24 34 -43 -1 -9 6 -23 17 -30 10 -8 16 -16 13 -19 -3
-4 4 -9 15 -13 12 -4 18 -11 15 -17 -5 -8 -1 -9 10 -5 10 4 15 3 11 -3 -3 -6
-1 -10 6 -10 8 0 8 -4 1 -13 -9 -10 -6 -17 8 -29 10 -9 22 -13 26 -10 5 4 3 0
-4 -10 -9 -11 -10 -18 -2 -23 8 -5 8 -11 -1 -21 -10 -13 -6 -18 13 -16 3 1 12
-6 20 -15 11 -14 11 -16 -1 -8 -11 6 -13 4 -8 -9 4 -10 7 -22 7 -27 0 -6 5 -7
10 -4 6 3 10 -1 10 -9 0 -9 13 -18 35 -22 31 -6 50 -24 25 -24 -6 0 -5 -8 2
-19 7 -11 15 -18 19 -15 8 5 19 -33 11 -40 -8 -9 -8 -95 0 -89 5 2 4 -7 -1
-20 -6 -16 -6 -28 0 -34 12 -12 -14 -83 -30 -83 -6 0 -8 -6 -5 -13 9 -25 9
-117 -1 -117 -5 0 -3 -5 5 -11 11 -8 12 -12 2 -16 -6 -2 -9 -10 -5 -16 11 -17
10 -41 -2 -50 -6 -4 -1 -10 12 -13 13 -4 20 -10 17 -15 -3 -5 0 -9 7 -9 9 0 9
-3 0 -14 -9 -11 -9 -15 1 -19 10 -4 10 -6 1 -6 -9 -1 -10 -8 -3 -25 5 -13 6
-27 2 -30 -10 -11 -9 -46 2 -46 6 0 4 -5 -4 -10 -8 -5 -10 -10 -5 -10 6 0 10
-11 10 -25 0 -14 -3 -25 -6 -25 -8 0 -5 -33 5 -49 5 -8 3 -17 -5 -22 -11 -7
-11 -9 -1 -9 9 0 10 -5 2 -19 -8 -16 -6 -23 11 -35 12 -8 18 -19 14 -25 -3 -6
-2 -11 4 -11 6 0 8 -7 5 -15 -4 -8 -11 -12 -18 -8 -6 3 4 -9 21 -27 18 -18 33
-36 33 -41 0 -5 7 -9 15 -9 20 0 39 -37 22 -43 -7 -4 -6 -6 4 -6 17 -1 34 -45
24 -61 -4 -6 3 -10 15 -10 12 0 18 -4 15 -10 -3 -5 -2 -10 3 -10 5 0 8 -11 7
-25 -2 -14 1 -23 6 -19 8 5 13 -9 10 -28 0 -5 4 -8 10 -8 5 0 7 -4 4 -10 -3
-5 1 -10 9 -10 9 0 16 -4 16 -10 0 -15 35 -47 47 -43 6 2 20 -6 31 -17 17 -18
23 -20 42 -10 12 7 20 8 16 2 -6 -11 28 -55 37 -46 3 3 8 -4 12 -15 3 -12 14
-21 22 -21 9 0 13 -3 10 -6 -4 -4 5 -17 19 -29 16 -13 22 -25 16 -29 -12 -7
32 -56 49 -56 6 0 8 -13 6 -29 -4 -25 -2 -29 14 -26 11 2 17 0 14 -6 -4 -5 1
-12 9 -15 9 -3 16 -12 16 -19 0 -8 5 -17 12 -21 7 -5 8 -3 3 7 -7 11 -6 12 6
2 10 -8 19 -9 27 -3 7 6 10 7 7 4 -7 -10 35 -64 49 -64 10 0 13 -58 12 -275
-1 -175 3 -277 9 -279 6 -3 6 -5 -1 -5 -13 -1 -8 -115 6 -119 6 -2 10 -11 10
-20 0 -15 2 -15 10 -2 6 9 10 10 10 3 0 -6 -4 -14 -9 -17 -14 -9 -4 -69 13
-82 13 -9 14 -13 4 -17 -9 -4 -10 -6 -1 -6 7 -1 10 -8 7 -16 -4 -10 0 -15 14
-15 17 0 19 -5 15 -31 -3 -21 -1 -29 6 -24 6 3 11 1 11 -5 0 -6 4 -9 9 -6 10
7 9 -13 -2 -31 -4 -6 -3 -15 3 -18 8 -5 8 -11 0 -20 -8 -10 -5 -18 14 -33 14
-10 22 -22 19 -26 -3 -3 7 -6 24 -6 23 0 32 -5 36 -21 4 -14 10 -18 18 -13 9
5 10 2 6 -9 -4 -12 -2 -14 10 -10 10 4 14 2 9 -5 -3 -6 3 -13 14 -17 11 -4 18
-10 15 -15 -3 -5 1 -11 7 -13 9 -4 9 -6 -2 -6 -8 -1 3 -17 28 -41 22 -22 39
-40 36 -40 -3 0 2 -8 12 -17 11 -12 34 -17 70 -18 42 0 55 -4 60 -17 3 -10 11
-15 20 -11 7 3 14 -1 14 -8 0 -7 3 -9 6 -6 4 3 19 -7 34 -23 15 -16 30 -26 34
-22 4 3 4 -1 0 -11 -4 -12 -1 -17 11 -17 9 0 13 -4 10 -10 -3 -5 1 -10 10 -10
10 0 13 -5 9 -12 -6 -10 -5 -10 8 0 12 10 20 8 42 -13 15 -14 24 -30 21 -35
-4 -6 -3 -10 2 -9 22 4 33 -3 33 -20 0 -11 -3 -21 -7 -24 -5 -2 -2 -2 5 -1 6
2 12 -4 12 -12 0 -8 4 -12 10 -9 5 3 10 1 10 -5 0 -6 4 -9 9 -6 12 8 20 -39
10 -56 -4 -7 -3 -15 3 -19 7 -4 7 -13 -1 -28 -7 -13 -8 -21 -2 -21 6 0 8 -7 4
-16 -3 -10 0 -22 8 -28 8 -6 15 -20 17 -31 2 -11 9 -24 16 -30 7 -5 12 -20 11
-33 -1 -15 3 -21 12 -18 7 3 13 2 13 -3 0 -4 9 -18 19 -30 11 -13 17 -29 14
-37 -4 -10 2 -17 15 -21 22 -5 27 -41 7 -55 -7 -5 -6 -8 0 -8 15 0 16 -40 2
-40 -8 0 -8 -3 1 -9 8 -4 14 -12 14 -16 0 -4 -6 -12 -14 -16 -7 -5 -8 -9 -2
-9 7 0 9 -11 6 -25 -2 -14 -11 -25 -18 -25 -18 0 -18 -34 -1 -49 8 -6 16 -9
19 -6 2 3 5 -2 5 -10 0 -8 -5 -15 -11 -15 -6 0 1 -11 16 -24 15 -12 25 -26 21
-30 -3 -3 -1 -6 6 -6 16 0 42 -26 34 -34 -4 -3 -1 -6 6 -6 8 0 12 -13 11 -37
-3 -68 0 -94 10 -88 6 3 10 -1 10 -9 0 -8 9 -18 20 -21 11 -4 18 -11 15 -16
-4 -5 1 -9 10 -9 9 0 14 -4 10 -9 -6 -10 32 -26 53 -23 6 2 12 -6 12 -17 0
-14 5 -19 15 -15 14 6 20 -6 16 -29 -1 -5 3 -6 9 -2 5 3 13 -1 16 -9 3 -9 13
-16 21 -16 8 0 12 -4 8 -9 -3 -5 4 -12 15 -16 11 -4 18 -11 15 -16 -4 -5 1
-12 9 -15 9 -3 13 -10 10 -15 -3 -5 -2 -9 3 -8 26 5 63 -2 58 -11 -3 -5 0 -10
9 -10 8 0 16 -5 18 -11 2 -7 12 -7 31 0 18 7 27 7 27 0 0 -6 4 -8 9 -5 11 7
78 -58 74 -71 -4 -12 27 -11 46 2 9 5 12 4 7 -3 -10 -17 21 -41 45 -35 15 4
20 2 15 -5 -8 -13 27 -34 40 -24 5 4 8 6 7 3 -4 -6 25 -31 37 -31 6 0 9 -3 7
-7 -3 -5 1 -14 9 -21 8 -7 14 -9 14 -4 0 5 7 9 15 9 8 0 12 -4 9 -9 -3 -4 -1
-8 5 -8 6 0 8 -7 5 -15 -6 -15 37 -65 56 -65 5 0 10 -4 10 -8 0 -15 37 -52 51
-52 8 0 10 -3 4 -8 -14 -10 -12 -35 6 -63 9 -13 14 -35 12 -48 -3 -19 -1 -22
11 -12 11 9 15 7 18 -13 3 -16 1 -23 -5 -19 -6 4 -7 1 -2 -7 12 -19 12 -120 0
-120 -6 0 -6 -3 1 -8 6 -4 9 -27 7 -52 -4 -55 -4 -51 0 -127 2 -37 0 -60 -6
-56 -5 3 -3 -5 3 -18 10 -18 10 -24 1 -27 -9 -3 -9 -8 1 -20 11 -13 11 -14 -2
-7 -12 7 -13 6 -3 -7 7 -8 10 -18 6 -21 -3 -4 1 -7 10 -7 12 0 17 -9 17 -30 0
-24 4 -30 17 -28 10 2 18 -3 18 -10 0 -7 6 -17 14 -21 8 -5 10 -14 6 -21 -5
-9 -4 -11 4 -6 6 4 14 0 17 -8 3 -9 10 -13 15 -10 5 3 9 0 9 -6 0 -6 5 -8 10
-5 6 4 10 3 9 -2 -3 -20 2 -34 11 -28 5 3 10 -1 10 -9 0 -9 7 -16 17 -16 9 0
14 -3 10 -6 -7 -8 17 -34 32 -34 6 0 11 -4 11 -9 0 -4 34 -9 75 -9 79 -1 100
-6 89 -24 -5 -7 -2 -9 7 -6 10 4 20 -4 28 -24 7 -16 15 -27 18 -25 5 6 80 -66
77 -73 -1 -3 9 -10 22 -17 13 -6 22 -7 18 -2 -8 14 6 11 21 -5 8 -7 11 -16 8
-19 -3 -4 11 -5 31 -3 26 2 40 -2 46 -14 6 -12 20 -16 45 -14 29 3 37 -1 44
-18 5 -15 10 -18 15 -9 6 9 11 9 21 1 15 -12 36 -10 48 5 4 7 10 7 15 0 8 -12
22 -13 39 -2 6 4 14 3 18 -2 7 -13 45 -10 45 4 0 5 11 -3 25 -20 15 -19 24
-25 25 -15 0 13 1 13 10 0 9 -13 10 -13 10 0 0 13 1 13 10 0 9 -13 10 -13 10
0 0 9 8 4 18 -13 9 -15 23 -27 30 -27 7 0 10 -5 7 -11 -4 -6 -1 -10 6 -8 37 4
48 -2 46 -25 -1 -14 2 -26 8 -28 20 -6 51 -43 44 -52 -5 -5 1 -17 12 -27 11
-10 20 -20 20 -23 -3 -24 0 -48 5 -43 13 12 32 -18 23 -36 -7 -13 -6 -17 6
-17 22 0 30 -27 14 -47 -10 -12 -10 -15 -1 -9 19 11 38 -15 36 -51 0 -19 4
-31 10 -30 6 1 10 -4 9 -10 -2 -7 2 -13 7 -13 7 0 7 -7 -1 -21 -6 -12 -7 -19
-2 -16 15 10 37 -11 38 -35 0 -13 6 -23 13 -24 23 -3 24 -4 12 -19 -10 -12
-10 -15 0 -15 9 0 10 -4 2 -13 -8 -10 -5 -20 12 -40 13 -15 28 -27 34 -27 6 0
9 -7 5 -15 -3 -9 3 -23 13 -31 11 -9 12 -12 4 -8 -8 4 2 -9 22 -29 20 -21 42
-37 48 -37 6 0 8 -5 5 -10 -3 -6 1 -11 9 -11 9 -1 20 -2 25 -3 5 0 30 -22 55
-48 25 -26 48 -43 52 -37 3 5 20 -5 37 -24 18 -19 39 -32 49 -30 9 2 23 -5 30
-16 8 -12 18 -18 22 -14 4 4 4 0 1 -9 -4 -11 1 -17 19 -20 14 -3 26 -2 26 2 0
5 9 6 20 3 11 -3 20 -12 20 -20 0 -10 7 -14 20 -10 11 3 20 0 20 -5 0 -7 4 -7
13 0 10 9 18 6 31 -9 12 -15 26 -20 47 -17 22 4 33 -1 44 -19 10 -14 21 -21
28 -16 23 14 55 11 52 -6 -2 -11 5 -16 21 -17 13 -1 24 3 24 10 0 6 4 5 9 -3
8 -13 12 -13 27 0 10 8 15 9 11 3 -4 -8 3 -11 23 -10 17 0 30 5 30 11 0 7 3 6
8 0 4 -6 16 -11 27 -11 11 0 23 5 27 11 5 6 8 5 8 -4 0 -7 6 -11 15 -7 9 3 21
-5 31 -22 8 -15 13 -19 10 -10 -8 28 24 10 73 -41 25 -25 49 -45 54 -43 5 2 7
-5 3 -14 -4 -12 -2 -15 9 -10 8 3 14 2 14 -2 -1 -4 -1 -24 0 -44 1 -27 5 -38
17 -38 8 0 13 -3 11 -7 -3 -5 1 -14 9 -21 8 -7 14 -10 14 -7 0 3 6 0 14 -7 8
-7 12 -17 9 -21 -3 -5 4 -11 15 -14 11 -3 23 -12 26 -20 3 -7 2 -12 -3 -9 -5
4 -7 -3 -4 -14 3 -11 12 -20 20 -20 11 0 14 -8 11 -29 -3 -21 -1 -28 9 -24 11
4 17 -7 15 -28 -1 -4 6 -6 16 -5 12 1 17 -6 16 -26 -1 -26 7 -33 31 -28 5 1 7
-2 3 -6 -4 -4 1 -14 11 -23 10 -9 17 -24 15 -34 -1 -9 4 -23 12 -30 34 -30 42
-35 50 -29 4 4 4 1 0 -6 -4 -7 -1 -15 8 -18 9 -3 16 -14 16 -23 0 -14 2 -14
10 -1 9 13 10 13 11 0 1 -8 1 -18 0 -22 0 -5 6 -8 14 -8 8 0 15 -4 15 -10 0
-5 10 -14 21 -21 16 -8 20 -8 14 1 -6 9 -3 9 14 1 22 -12 47 -50 43 -65 -2 -5
5 -3 14 5 11 8 15 9 11 2 -5 -7 1 -18 13 -25 11 -7 20 -19 20 -26 0 -9 6 -12
15 -8 13 5 19 -5 16 -26 0 -4 8 -5 19 -3 12 2 29 -5 40 -17 11 -12 20 -16 20
-9 0 7 5 9 11 6 17 -11 59 -13 59 -3 0 5 9 4 20 -2 11 -6 20 -7 20 -3 0 14
103 2 118 -14 8 -8 21 -12 28 -9 8 3 14 0 14 -7 0 -8 4 -6 10 3 6 10 10 11 10
3 0 -7 6 -13 14 -13 8 0 16 -7 19 -14 5 -11 13 -13 35 -6 20 5 34 4 41 -3 6
-6 11 -7 11 -1 0 5 15 9 34 9 19 0 32 -3 29 -7 -2 -5 1 -8 7 -8 6 0 9 -4 5 -9
-3 -6 4 -8 17 -6 12 3 26 -1 30 -8 5 -7 8 -8 8 -1 0 6 12 10 28 9 15 -1 33 3
41 9 11 8 13 8 8 0 -4 -7 0 -14 8 -18 8 -3 17 -1 20 4 4 6 14 6 27 -1 15 -8
19 -8 14 0 -11 17 0 13 20 -6 20 -20 74 -27 74 -9 0 6 14 -9 30 -34 16 -25 30
-42 30 -38 0 4 11 -4 25 -18 14 -14 25 -29 25 -35 0 -6 5 -7 10 -4 6 3 10 -1
10 -9 0 -9 5 -15 12 -14 8 2 12 -8 12 -25 -1 -15 1 -25 4 -23 6 7 32 -20 32
-34 0 -6 -5 -8 -12 -4 -7 5 -8 3 -2 -7 5 -8 9 -21 9 -29 0 -8 6 -14 12 -12 7
1 13 -3 13 -10 0 -17 93 -103 108 -100 6 2 12 -3 12 -9 0 -7 3 -10 6 -6 7 7
22 -7 47 -43 9 -13 17 -20 17 -14 0 5 9 10 20 10 10 0 17 -2 15 -4 -9 -9 25
-31 39 -26 11 4 16 1 16 -10 0 -14 11 -20 31 -18 4 1 5 -16 3 -38 -3 -32 0
-41 16 -50 11 -6 18 -15 15 -20 -3 -5 4 -11 15 -15 11 -4 18 -10 15 -15 -3 -5
5 -7 19 -4 14 2 26 -1 29 -10 8 -20 58 -30 68 -14 7 10 9 8 9 -5 0 -10 5 -15
10 -12 6 3 10 0 10 -7 0 -10 12 -13 40 -11 35 2 40 -1 40 -20 0 -18 2 -19 10
-7 9 13 10 13 11 0 1 -8 1 -19 0 -23 -1 -5 3 -6 9 -2 5 3 10 0 10 -7 0 -10 2
-10 9 0 6 11 14 8 36 -15 15 -15 24 -22 20 -14 -6 11 -4 13 9 8 10 -4 20 -7
22 -7 2 0 4 -7 4 -15 0 -8 5 -15 10 -15 6 0 10 6 10 13 0 8 3 8 8 2 10 -16 54
-17 45 -2 -5 9 -3 9 8 0 8 -6 33 -10 57 -8 30 2 40 0 36 -8 -3 -7 2 -3 10 7 9
11 16 15 16 9 0 -14 62 -12 72 2 5 6 8 5 8 -2 0 -17 37 -17 43 0 4 9 6 9 6 0
1 -7 8 -10 18 -6 12 5 14 3 8 -7 -6 -10 -4 -11 6 -4 8 5 19 9 24 9 6 0 10 5
10 12 0 6 4 15 9 20 5 5 6 3 2 -4 -4 -7 -3 -13 3 -13 5 0 11 6 14 13 3 9 7 9
19 -1 12 -9 18 -10 23 -2 5 8 11 8 19 1 7 -6 16 -8 20 -4 11 11 96 10 96 -2 0
-5 4 -4 9 3 11 18 19 17 39 -6 10 -11 31 -19 51 -20 19 0 38 -7 43 -15 5 -9
19 -13 38 -11 16 2 30 -1 30 -6 0 -6 6 -10 14 -10 7 0 16 -9 19 -20 3 -11 12
-20 21 -20 9 0 16 -6 16 -14 0 -8 8 -13 18 -12 9 2 27 -8 38 -22 14 -16 24
-20 28 -13 4 6 12 9 17 5 5 -3 7 -10 4 -15 -4 -5 -1 -9 5 -9 8 0 8 -6 0 -20
-8 -14 -8 -20 0 -20 6 0 8 -5 5 -10 -3 -6 1 -10 10 -10 9 0 13 -4 10 -10 -3
-5 -1 -10 6 -10 8 0 8 -4 -1 -15 -11 -14 -7 -19 13 -16 4 0 7 -6 7 -14 0 -8 7
-15 16 -15 8 0 13 -3 11 -8 -6 -9 19 -33 27 -25 3 4 6 -1 6 -10 0 -9 5 -19 12
-23 7 -5 8 -3 3 6 -5 9 -4 11 3 6 7 -4 12 -13 12 -21 0 -8 5 -17 12 -21 7 -5
8 -3 3 7 -8 12 -6 12 8 0 14 -11 17 -11 18 0 0 8 5 4 11 -8 6 -13 20 -23 31
-23 10 0 32 -14 48 -31 17 -19 35 -29 44 -25 8 3 15 1 15 -5 0 -6 4 -8 9 -4 6
3 8 -4 6 -16 -4 -18 -2 -19 11 -8 12 10 15 10 12 -2 -2 -8 3 -13 10 -11 6 1
12 -2 12 -7 0 -5 27 -8 59 -6 53 2 60 1 65 -18 4 -17 7 -18 20 -7 9 7 16 9 16
4 0 -5 24 -9 54 -9 34 0 52 4 48 10 -3 5 2 4 11 -4 14 -11 17 -11 17 0 0 11 2
11 10 -1 9 -13 11 -13 20 0 8 12 10 12 10 1 0 -11 3 -11 15 -1 12 10 15 10 15
-1 0 -11 2 -11 10 1 5 8 10 10 10 4 0 -13 42 -13 52 1 5 7 8 7 8 0 0 -10 96
-12 106 -2 3 3 18 2 32 -2 15 -4 33 -6 40 -5 6 1 19 2 29 3 9 0 13 4 10 8 -9
9 35 31 48 24 6 -3 31 -6 56 -6 35 0 46 4 45 15 -1 11 11 15 49 16 28 0 56 -5
64 -10 11 -8 13 -8 8 1 -5 8 3 11 25 11 32 -1 63 -20 51 -32 -4 -3 1 -6 10 -6
8 0 18 6 20 13 3 7 6 8 6 1 1 -7 14 -10 31 -8 21 3 33 -1 37 -12 3 -8 12 -13
19 -10 8 3 13 2 12 -2 -3 -15 15 -42 29 -42 8 0 11 -4 8 -10 -3 -5 1 -10 9
-10 9 0 16 -4 16 -10 0 -18 38 -50 44 -37 3 9 5 9 5 0 1 -7 6 -13 12 -13 5 0
7 5 3 12 -4 7 -3 8 5 4 6 -4 9 -12 6 -17 -4 -5 -1 -9 5 -9 6 0 8 -4 5 -10 -4
-6 1 -7 12 -3 10 3 15 3 11 -2 -4 -4 0 -14 8 -22 12 -12 18 -13 29 -3 15 12
16 11 19 -11 0 -7 10 -15 21 -20 11 -4 16 -8 11 -8 -13 -1 43 -51 57 -51 7 0
6 -4 -3 -10 -15 -10 -13 -11 28 -14 19 -1 42 -18 36 -27 -2 -3 3 -6 11 -6 8 0
15 5 15 11 0 6 4 5 9 -2 4 -8 11 -13 15 -13 25 3 36 -1 36 -15 0 -8 3 -13 8
-11 10 5 51 -40 43 -49 -3 -4 1 -5 9 -2 8 3 25 1 38 -3 15 -6 21 -5 17 1 -4 7
3 7 19 0 14 -5 26 -6 26 -1 0 14 54 -1 71 -20 9 -10 19 -16 23 -12 10 10 66
11 66 1 0 -5 6 -6 13 -1 18 12 61 11 70 -1 5 -8 9 -8 15 -1 9 13 62 15 62 2 0
-5 5 -5 13 2 10 8 17 7 27 -2 9 -9 11 -9 6 0 -4 8 1 11 14 10 11 -1 20 -6 20
-12 0 -5 4 -4 9 3 4 8 12 14 16 14 4 0 12 -6 16 -14 7 -10 9 -10 9 1 0 11 3
12 12 3 8 -8 17 -8 31 0 15 7 22 7 28 -3 7 -11 9 -11 9 -1 0 7 5 10 12 6 7 -5
8 -3 3 6 -10 17 16 32 32 18 9 -7 13 -7 13 0 0 6 7 9 15 6 18 -7 65 3 64 14
-3 18 3 21 26 12 16 -6 26 -6 31 1 4 8 9 7 15 -2 7 -11 12 -9 24 9 9 12 21 20
26 17 5 -4 9 0 9 7 0 9 3 9 10 -2 8 -12 10 -12 10 -1 0 10 3 11 13 3 8 -7 18
-7 27 -2 8 5 21 5 32 -1 13 -7 18 -6 18 3 0 8 3 9 8 3 9 -13 62 -14 62 -2 0 5
7 3 17 -4 13 -11 17 -11 20 -1 3 6 10 9 16 5 17 -10 127 -9 127 1 0 6 5 5 11
-1 6 -6 18 -9 26 -6 13 5 53 -31 53 -49 0 -4 7 -8 15 -8 8 0 15 -7 15 -16 0
-8 4 -13 9 -9 5 3 12 -3 16 -14 4 -14 13 -18 30 -15 26 5 27 3 27 -58 1 -19 6
-28 17 -28 13 0 17 -8 15 -30 -1 -16 2 -27 7 -24 5 3 9 -1 9 -8 0 -11 2 -11 9
0 7 11 11 11 22 0 24 -21 56 -37 63 -30 12 12 46 12 46 -1 0 -8 4 -7 10 3 8
12 13 13 29 3 10 -6 22 -9 25 -5 12 11 76 9 76 -2 0 -8 3 -8 8 -1 10 15 54 17
46 3 -5 -7 -2 -8 7 -2 16 10 120 14 115 5 -5 -7 26 -37 34 -33 3 2 11 9 19 15
12 9 13 9 7 0 -4 -8 -1 -13 8 -13 9 0 16 6 16 13 0 7 3 8 8 2 11 -15 66 -19
56 -4 -5 8 -3 9 5 5 7 -5 25 -10 42 -13 22 -3 29 0 29 12 0 9 5 13 10 10 6 -3
10 -2 10 4 0 5 8 8 18 6 9 -1 23 3 31 9 11 8 13 8 7 -1 -11 -20 2 -15 25 8 16
16 23 18 35 8 8 -6 14 -7 14 -2 0 9 132 8 157 -1 7 -3 10 1 7 8 -3 7 7 18 21
24 32 15 38 15 29 1 -3 -6 8 -3 25 5 17 9 31 22 31 29 0 8 4 7 10 -3 8 -12 10
-12 10 -1 0 10 3 11 13 2 10 -8 19 -7 33 5 10 8 13 12 5 8 -10 -5 -12 -3 -7 5
5 7 11 10 14 7 3 -3 12 0 20 7 11 8 13 8 9 0 -5 -7 0 -9 13 -6 12 3 19 8 16
10 -8 8 18 31 28 25 20 -12 76 -8 76 5 0 7 11 13 25 13 14 0 25 5 25 11 0 5 5
7 10 4 6 -4 7 -12 3 -18 -5 -9 -3 -9 8 -1 8 6 30 10 49 8 19 -1 40 2 46 7 8 6
14 6 18 1 7 -11 55 -10 73 1 9 5 17 0 24 -17 9 -18 17 -23 36 -20 14 3 22 1
19 -4 -2 -4 4 -13 14 -20 12 -7 21 -8 25 -2 4 6 11 5 19 -3 8 -6 12 -15 9 -19
-4 -7 29 -13 50 -9 5 1 6 -2 4 -6 -3 -5 1 -14 9 -21 11 -10 14 -10 14 0 0 9 3
9 12 0 8 -8 17 -8 32 0 15 8 21 8 24 0 2 -8 9 -9 22 -2 15 8 20 6 25 -10 5
-15 14 -18 41 -16 31 2 62 -16 57 -33 -1 -3 1 -8 4 -11 4 -3 2 1 -2 9 -6 11
-4 13 8 8 9 -3 19 -1 23 5 5 7 12 5 21 -7 7 -11 13 -14 13 -8 0 6 12 10 28 8
15 -2 33 2 41 9 11 8 13 8 8 0 -7 -13 17 -27 27 -16 11 11 36 11 36 0 0 -7 4
-7 13 -1 18 15 46 12 52 -6 5 -18 41 -21 65 -6 9 5 11 4 6 -3 -8 -14 51 -11
73 2 10 7 12 5 6 -3 -4 -7 5 -5 20 5 35 23 55 26 74 11 12 -9 13 -9 7 1 -4 6
-3 12 3 12 5 0 13 -5 16 -10 5 -8 11 -7 21 1 8 6 14 9 14 5 0 -3 12 -1 26 4
19 7 23 7 18 -2 -5 -8 -2 -9 9 -5 9 3 19 2 22 -4 4 -5 12 -6 18 -2 19 12 57
12 57 1 0 -6 12 2 26 17 17 19 29 24 36 17 16 -16 43 -3 62 29 10 16 20 27 24
25 10 -6 32 21 24 29 -4 4 0 6 8 5 35 -5 52 0 46 15 -3 8 -1 14 3 12 5 -1 23
13 40 30 17 18 35 33 40 33 4 0 7 11 6 24 -2 18 5 30 23 42 15 10 32 24 38 32
6 8 16 12 22 8 7 -4 12 -1 12 6 0 10 3 9 9 -1 7 -12 13 -12 24 -3 7 7 17 9 21
5 12 -12 48 -14 40 -2 -5 8 -1 8 13 0 14 -7 24 -7 33 2 10 9 11 9 6 -1 -8 -14
19 -12 44 2 8 5 12 6 8 1 -5 -5 2 -15 14 -23 26 -19 71 -26 62 -10 -5 7 -2 8
7 2 21 -13 39 -14 39 -1 0 7 7 4 14 -5 7 -10 16 -15 19 -11 4 3 7 2 7 -4 0 -6
9 -13 20 -16 11 -3 20 -1 20 3 0 5 12 5 28 1 15 -5 37 -4 50 0 14 5 22 5 22
-2 0 -6 5 -7 10 -4 6 3 13 -1 16 -10 5 -12 17 -16 43 -14 24 2 35 -1 33 -9 -1
-7 4 -13 10 -14 7 0 18 -2 23 -2 6 -1 16 -5 24 -10 9 -6 12 -5 7 2 -4 7 1 10
14 9 11 -1 20 -6 20 -12 0 -5 4 -4 9 4 6 9 11 10 15 2 5 -7 13 -8 24 -2 16 8
48 -10 37 -21 -2 -2 5 -4 15 -5 11 -1 22 3 25 8 4 5 12 6 18 2 20 -12 118 -13
110 -1 -4 7 -1 8 8 2 15 -9 130 -13 124 -4 -1 3 3 11 11 17 8 8 15 9 19 3 4
-6 11 -7 17 -4 6 4 31 7 57 8 29 2 45 7 43 14 -1 7 9 12 22 12 14 0 32 10 40
22 16 22 16 22 32 3 8 -11 13 -14 9 -8 -3 7 -1 13 4 13 6 0 10 6 9 12 -2 8 7
13 22 13 15 0 29 9 35 21 6 11 16 19 23 16 7 -2 10 2 6 12 -4 11 -1 14 14 11
15 -3 18 1 15 20 -6 28 40 78 56 62 8 -8 11 -7 11 2 0 7 5 9 12 5 8 -5 9 -2 5
10 -5 13 -2 17 11 15 22 -3 53 11 47 21 -2 4 6 7 18 6 12 -1 27 4 32 11 6 7
20 14 31 16 23 3 56 31 48 40 -3 3 3 10 14 16 11 6 23 7 27 3 3 -4 6 -2 4 3
-3 15 12 46 21 40 4 -3 13 2 20 11 10 11 15 12 21 3 4 -8 9 -4 14 10 5 17 11
20 32 15 20 -5 24 -4 18 6 -5 9 -4 11 4 6 14 -9 64 -16 57 -8 -3 2 0 10 7 16
15 14 139 17 130 3 -4 -6 -1 -7 8 -2 23 15 48 12 54 -5 4 -12 15 -16 41 -15
21 1 38 -3 41 -11 2 -7 11 -15 19 -18 10 -4 13 -2 8 7 -6 9 -5 9 7 0 12 -10
18 -10 27 -1 9 9 12 9 12 -1 0 -11 3 -11 17 0 11 10 14 10 9 2 -9 -16 6 -17
22 -1 9 9 12 9 12 -1 0 -11 3 -11 17 0 11 10 14 10 9 2 -4 -7 -3 -13 1 -13 5
0 15 6 22 13 11 9 13 9 7 0 -9 -16 -1 -16 26 -2 11 6 18 7 15 2 -3 -5 12 -9
34 -8 21 0 39 5 39 10 0 7 3 7 8 0 4 -5 14 -10 22 -10 8 0 18 5 22 10 5 6 8 5
8 -4 0 -10 3 -11 14 -2 11 9 15 9 20 -1 5 -10 7 -10 12 0 3 6 11 9 17 5 21
-13 139 -6 148 9 5 10 25 14 62 13 46 -1 55 2 52 16 -2 11 3 16 18 15 24 -1
67 34 60 47 -3 5 6 7 20 5 17 -2 33 6 51 25 14 15 26 33 26 39 0 7 5 7 14 -1
11 -9 18 -8 30 4 9 9 16 22 16 28 0 8 4 7 9 -2 5 -8 16 -11 26 -8 9 4 13 11
10 17 -3 5 -2 10 4 10 14 0 69 58 62 66 -3 4 2 4 12 1 15 -6 16 -4 7 13 -7 14
-7 20 0 20 5 0 9 5 8 12 -2 7 4 12 12 13 8 1 14 6 12 13 -1 7 4 11 10 10 7 -2
14 6 14 17 1 11 2 26 3 33 1 6 6 12 11 12 6 0 21 11 34 25 13 14 33 25 45 25
12 0 21 6 21 14 0 9 7 13 20 11 12 -2 24 4 30 15 6 11 18 17 30 15 11 -2 20 1
20 6 0 6 5 7 10 4 6 -3 10 1 10 9 0 10 7 13 25 10 20 -3 25 0 25 16 0 17 3 19
19 10 14 -7 20 -7 23 2 3 8 10 8 27 -2 13 -6 21 -8 18 -3 -3 5 17 8 44 8 27 0
49 -4 49 -9 0 -5 6 -3 14 3 10 8 16 9 21 1 3 -6 12 -7 18 -3 20 12 47 10 47
-4 0 -7 3 -13 8 -14 4 0 16 -2 27 -4 11 -2 23 1 27 8 5 8 8 9 8 1 0 -13 58
-13 79 0 9 6 12 5 7 -2 -4 -7 5 -10 26 -8 39 2 61 13 52 27 -7 13 19 7 28 -6
5 -6 8 -6 8 1 0 10 24 11 55 3 6 -1 17 1 25 4 19 8 63 4 71 -6 3 -4 15 2 27
13 11 11 30 20 41 20 10 0 22 7 25 16 3 8 10 12 16 9 6 -3 10 4 10 17 0 16 3
19 9 10 6 -11 10 -10 15 4 6 16 8 16 16 4 9 -13 10 -13 11 0 1 8 1 17 1 20 0
3 14 5 31 4 18 0 37 4 44 8 6 5 14 5 18 -1 4 -7 12 -7 25 1 10 7 16 16 13 22
-4 5 1 7 11 3 12 -5 30 6 61 38 24 25 48 45 55 45 6 0 9 4 6 8 -7 11 35 47 54
47 9 0 37 21 63 46 25 25 49 45 52 43 3 -2 3 -1 0 3 -7 9 16 34 26 27 5 -3 6
2 3 11 -4 9 -3 15 2 14 35 -6 53 3 56 29 2 18 8 27 20 26 14 -1 15 2 8 17 -8
14 -6 23 9 38 13 13 18 30 17 54 -2 20 0 36 3 35 23 -2 32 4 27 18 -4 11 4 26
23 44 16 16 27 31 24 33 -2 3 5 8 16 12 12 3 19 11 16 16 -4 5 -1 10 4 10 6 1
16 3 21 4 6 1 17 3 26 4 8 0 12 5 9 11 -3 5 -1 11 4 11 28 3 52 7 59 8 4 1 0
6 -8 11 -8 5 -10 10 -5 11 6 0 20 2 33 5 13 2 22 -1 22 -9 0 -8 4 -7 10 3 5 8
10 11 10 6 0 -5 8 -2 17 5 9 8 14 9 10 3 -4 -8 3 -11 22 -10 20 0 27 5 23 15
-3 9 -1 12 6 7 7 -4 12 -4 12 1 0 10 123 9 139 -1 6 -4 11 -3 11 1 0 5 21 7
47 6 25 -2 43 0 40 4 -12 11 13 31 32 26 10 -3 21 2 24 10 4 11 20 15 61 14
31 -1 56 1 56 4 0 3 20 3 45 -1 37 -6 48 -3 66 13 11 10 23 16 26 13 3 -3 13
-1 23 4 10 5 20 6 24 3 13 -13 36 -11 36 3 0 8 8 15 18 16 9 1 24 2 32 4 8 1
24 2 34 3 11 1 17 4 13 7 -3 3 12 23 34 45 21 21 39 44 39 49 0 6 3 9 8 9 20
-3 32 2 30 14 -2 7 9 13 25 15 17 2 27 9 27 19 0 9 3 14 6 10 3 -3 15 3 27 14
11 10 29 19 38 19 22 0 34 16 17 23 -9 4 -5 12 11 25 16 13 20 21 12 26 -6 4
-8 13 -4 19 11 18 10 51 -2 60 -6 5 -1 7 11 4 21 -4 24 2 25 46 0 11 5 17 14
14 9 -4 12 3 11 23 -1 16 0 28 2 25 7 -6 30 19 25 28 -2 4 1 7 8 7 8 0 8 4 1
13 -7 8 -7 18 -2 27 5 8 7 17 5 20 -2 4 6 6 18 5 12 -1 30 6 40 17 16 16 22
17 35 6 10 -7 14 -9 10 -4 -4 4 5 19 19 32 14 13 21 24 15 24 -8 0 -9 8 -2 24
5 15 5 27 -3 35 -8 8 -8 11 1 11 7 0 11 6 10 13 -2 6 3 11 10 9 11 -2 17 11
12 33 -1 6 2 7 6 3 4 -4 15 1 25 13 12 14 18 16 22 7 3 -9 10 -7 25 8 12 12
18 25 15 28 -4 3 -1 6 5 6 7 0 12 -3 12 -7 0 -5 25 -8 55 -8 30 0 55 5 55 10
0 6 5 3 10 -5 7 -11 10 -11 10 -2 0 7 5 10 10 7 6 -3 10 1 10 10 0 9 5 13 10
10 6 -3 10 0 10 7 0 9 3 9 8 2 8 -13 42 -14 42 -2 0 5 4 6 10 3 5 -3 7 0 4 9
-6 15 11 17 33 3 6 -4 14 -3 18 3 3 5 13 10 21 10 9 0 12 -5 8 -12 -5 -7 -3
-8 7 -2 8 5 25 9 39 9 14 1 40 15 59 33 24 23 36 29 42 21 5 -8 11 -5 19 11
10 18 18 21 51 18 22 -2 39 1 39 7 0 7 3 7 8 0 10 -14 51 -14 46 0 -7 17 22
39 31 25 5 -7 12 -5 23 7 10 10 24 18 32 18 8 0 34 19 57 42 22 24 51 43 62
43 12 0 21 6 21 14 0 8 5 18 12 22 7 5 8 2 3 -7 -4 -8 7 3 25 24 17 20 36 34
42 31 6 -4 8 -2 4 4 -3 6 3 17 14 25 11 7 17 17 13 20 -6 6 11 11 30 8 4 0 7
6 7 14 0 8 5 15 11 15 5 0 8 4 4 9 -3 5 4 12 15 16 11 4 18 11 15 16 -4 5 -1
9 5 9 13 0 9 32 -5 42 -6 5 -5 8 3 8 7 0 11 4 7 9 -3 5 4 12 15 16 23 7 26 21
8 28 -8 3 -3 9 12 15 14 6 21 11 15 12 -5 0 -3 5 5 10 9 6 11 10 3 10 -7 0
-10 7 -6 16 3 8 11 13 18 11 8 -4 11 4 10 21 -1 15 3 33 9 41 8 11 8 13 0 8
-7 -4 -15 0 -18 9 -3 8 -2 12 4 9 6 -3 10 1 10 9 0 9 6 16 13 16 9 0 13 15 12
52 -1 44 3 56 23 75 14 13 28 23 32 23 4 0 12 11 18 25 6 14 19 25 27 25 9 0
13 5 10 10 -3 6 0 10 7 10 10 0 10 2 1 8 -8 5 -9 13 -3 22 6 8 10 11 10 5 0
-5 7 1 15 15 9 17 10 29 3 37 -11 14 -1 36 13 27 5 -3 9 -2 8 3 -3 20 2 34 11
28 6 -3 10 0 10 7 0 9 3 9 10 -2 5 -8 10 -10 10 -4 0 6 10 9 24 7 18 -4 26 0
31 17 4 13 10 19 14 13 7 -10 21 -11 37 -1 6 4 14 4 18 1 4 -4 14 -8 22 -9 9
-1 13 0 10 3 -3 3 2 12 10 20 8 9 18 13 21 10 9 -10 44 13 37 24 -3 6 4 7 20
3 20 -5 26 -2 26 9 0 9 5 19 12 23 7 5 8 2 3 -7 -6 -11 -5 -11 5 -2 9 8 19 9
31 3 11 -7 20 -7 24 0 4 7 12 7 24 0 14 -7 24 -4 40 11 12 11 26 17 31 14 6
-3 10 -1 10 5 0 6 5 8 10 5 9 -6 15 8 11 29 -1 5 6 3 15 -5 10 -8 15 -9 11 -3
-4 7 0 15 9 18 8 3 12 11 8 17 -5 8 -3 9 7 3 23 -14 43 -10 68 13 19 16 28 19
38 11 9 -8 15 -6 20 8 10 27 45 53 65 49 10 -2 18 2 18 10 0 7 7 16 16 19 8 3
12 2 9 -4 -9 -15 0 -12 23 9 12 10 18 22 14 27 -4 4 1 2 11 -5 14 -11 17 -11
17 -1 0 8 3 10 6 7 4 -4 15 3 25 15 11 11 19 17 19 12 0 -16 48 -15 53 1 3 7
16 19 28 25 14 8 19 8 15 1 -5 -7 -1 -9 8 -5 9 3 16 13 16 21 0 8 6 13 13 10
8 -3 12 4 11 22 0 15 7 32 19 40 14 10 16 16 7 21 -9 6 -7 11 9 19 19 10 21
20 20 70 -1 32 1 63 5 70 4 6 1 11 -6 11 -9 0 -9 3 2 10 11 7 11 10 2 10 -9 0
-10 5 -3 19 6 10 7 21 3 25 -3 4 2 4 11 0 15 -5 17 -2 13 20 -3 16 0 26 7 26
8 0 8 3 -1 9 -17 11 -17 21 0 32 7 5 8 9 2 9 -13 0 -13 48 0 69 6 10 5 12 -2
7 -7 -4 -12 -3 -12 2 0 5 9 12 20 15 22 6 27 36 8 56 -10 11 -10 13 0 7 7 -4
12 -1 12 8 0 8 4 16 10 18 5 2 11 14 13 28 2 14 9 25 15 25 7 0 11 3 10 6 -2
3 12 18 30 33 17 15 32 34 32 42 0 8 4 13 10 11 5 -1 33 23 62 53 54 56 102
75 120 47 5 -7 8 -8 8 -1 0 7 19 10 50 9 28 -1 50 2 50 7 0 5 5 6 12 2 8 -5 9
-2 5 10 -4 10 -3 15 3 11 5 -3 14 4 20 15 6 11 15 18 21 15 8 -6 13 8 10 28
-1 5 3 6 8 3 5 -4 14 2 20 11 6 10 11 14 11 9 0 -5 8 -2 17 5 14 12 16 12 9
-1 -4 -8 1 -5 12 7 15 17 22 19 32 10 9 -8 11 -9 6 0 -3 6 7 15 26 22 17 6 28
14 25 18 -9 8 13 34 23 28 4 -2 7 3 7 13 0 35 3 42 19 42 8 0 13 4 9 9 -3 6 4
15 15 21 11 6 17 16 14 22 -5 7 -2 9 8 5 22 -8 29 2 17 26 -8 15 -8 18 1 12
10 -6 10 -3 2 11 -8 14 -6 21 6 30 14 10 21 29 24 61 1 10 5 10 15 1 8 -6 13
-7 12 -2 -3 20 2 35 10 29 5 -3 13 4 16 16 4 11 9 18 12 16 5 -5 43 29 43 38
0 3 10 15 22 27 14 14 17 23 10 26 -8 2 -9 9 -2 21 5 10 6 21 2 25 -3 4 2 4
12 0 15 -6 17 -3 11 14 -4 15 -2 22 7 22 10 0 9 3 -2 10 -8 5 -10 10 -4 10 8
0 9 13 4 40 -5 29 -4 40 5 40 17 0 26 25 18 47 -5 12 -3 14 8 8 11 -7 12 -6 2
6 -10 12 -9 18 7 31 10 9 21 13 25 10 3 -4 3 1 -1 11 -3 9 -11 14 -17 10 -6
-4 -7 -1 -1 8 13 20 13 73 0 81 -8 6 -8 8 0 8 7 0 11 21 10 57 -1 43 3 62 16
75 10 10 15 24 12 32 -3 9 3 17 15 21 12 3 19 10 16 15 -3 5 4 14 15 20 11 6
18 15 15 20 -3 6 0 7 8 4 10 -3 16 3 19 20 3 14 2 26 -1 26 -3 0 -6 13 -6 29
0 16 3 27 8 24 4 -2 7 1 7 6 0 6 -4 11 -9 11 -13 0 -8 32 9 50 8 9 20 14 25
11 6 -2 4 3 -4 12 -7 9 -9 17 -4 17 5 0 22 18 39 39 16 22 32 37 36 35 3 -2
10 5 13 16 5 16 10 19 20 10 11 -9 17 -6 30 14 10 14 22 23 28 19 6 -4 8 0 4
10 -3 9 -3 16 2 14 4 -1 22 13 40 31 18 17 37 29 42 26 6 -3 26 11 46 33 20
21 41 37 45 35 5 -1 5 6 -1 15 -6 13 -5 22 5 31 8 7 14 9 14 4 0 -5 7 -9 15
-9 14 0 19 11 16 31 -1 5 5 6 12 3 8 -3 20 0 26 6 6 6 11 7 11 1 0 -5 9 -10
20 -11 11 -1 20 3 20 9 0 7 5 6 14 -1 11 -9 15 -9 19 1 4 10 6 10 6 1 1 -7 5
-13 11 -13 5 0 9 3 9 8 -4 22 3 34 16 28 9 -3 23 2 33 12 9 9 24 17 32 16 8 0
30 15 47 33 18 18 39 33 45 33 9 0 8 4 -2 10 -13 8 -13 10 1 10 9 0 20 7 23
16 3 8 10 12 16 9 10 -6 14 6 10 38 -1 10 4 25 10 33 7 8 9 14 4 14 -4 0 1 7
12 15 12 9 14 14 6 15 -8 0 -10 5 -5 13 4 6 6 19 5 29 -2 9 2 20 9 24 8 5 9 3
4 -6 -6 -9 -4 -11 4 -6 7 5 10 14 7 22 -3 8 -1 14 3 14 13 0 0 44 -16 53 -7 5
-11 12 -8 18 4 5 2 9 -2 9 -5 0 -9 9 -9 20 0 11 3 20 6 20 3 0 6 18 5 40 0 22
-3 40 -7 40 -5 0 -8 7 -8 16 0 8 -4 13 -8 10 -5 -3 -8 21 -8 52 1 31 -2 69 -6
85 -4 15 -3 25 2 22 5 -3 8 4 7 15 -1 11 -6 20 -11 20 -5 0 -1 7 10 16 10 8
13 12 5 8 -10 -5 -12 0 -6 25 5 22 3 31 -7 31 -10 0 -9 3 2 10 8 5 11 10 6 10
-5 0 0 8 10 17 21 20 29 43 15 43 -10 0 -7 32 4 50 3 6 1 10 -5 10 -8 0 -8 6
0 20 8 15 8 20 -1 20 -8 0 -8 4 1 15 9 11 9 15 1 15 -7 0 -9 5 -5 12 4 7 8 34
8 60 -1 41 1 46 15 35 12 -9 13 -9 7 1 -4 7 -2 12 4 12 6 0 9 4 6 9 -3 5 1 11
9 15 8 3 17 1 20 -4 4 -6 11 -10 16 -10 6 0 8 4 5 9 -9 14 12 63 24 56 5 -3 7
0 4 9 -3 9 2 17 15 21 12 3 19 11 16 16 -4 5 0 9 8 9 8 0 17 7 21 15 3 8 11
12 19 9 18 -7 41 21 33 41 -3 9 -2 14 3 11 5 -3 11 4 14 15 4 16 11 20 24 15
9 -4 14 -4 10 0 -10 10 13 35 26 27 6 -3 7 -1 3 5 -4 7 -3 12 3 12 6 0 8 8 4
18 -5 13 -3 14 6 6 16 -15 54 -5 47 12 -3 8 2 11 14 9 11 -2 19 -1 19 3 -3 20
2 32 11 27 6 -3 10 -1 10 5 0 6 5 8 13 4 7 -5 6 0 -3 11 -8 10 -10 16 -4 12
14 -8 58 38 50 52 -4 6 2 16 14 23 11 7 20 21 20 32 0 10 17 35 37 54 24 23
33 37 25 40 -10 3 -10 7 0 20 10 12 10 14 0 8 -6 -4 -12 -4 -12 -1 0 11 24 30
60 47 41 20 79 60 62 66 -9 3 -9 9 -1 24 8 16 8 19 -1 13 -9 -6 -9 -2 -1 14 8
14 8 21 1 21 -8 0 -8 6 0 20 6 11 15 18 20 15 4 -3 7 9 6 25 -1 17 2 30 7 30
4 0 5 5 2 10 -4 6 -7 127 -7 270 0 226 -2 260 -15 260 -9 0 -13 6 -10 13 3 8
1 20 -3 27 -5 8 -4 22 2 33 7 14 7 22 -2 27 -8 5 -9 13 -4 21 4 8 8 23 9 34 0
11 5 19 12 18 13 -3 26 24 14 31 -5 3 -6 17 -4 31 3 13 9 23 13 20 10 -6 22
24 14 36 -3 5 0 9 6 9 6 0 8 5 5 10 -3 6 -1 10 6 10 21 0 46 39 43 67 -2 19 4
34 19 46 12 10 15 15 7 11 -12 -6 -13 -5 -3 8 7 8 9 19 5 23 -4 5 -1 5 6 1 7
-4 12 -1 12 7 0 16 27 31 48 28 6 -1 12 3 12 9 0 6 4 9 8 6 10 -6 9 24 -1 41
-5 8 -1 11 12 8 15 -3 19 1 16 16 -2 10 2 19 8 19 8 0 8 3 2 8 -18 13 -15 31
5 37 11 4 17 11 14 17 -4 6 -2 8 4 4 6 -3 14 -2 17 4 5 8 12 7 23 -2 12 -10
14 -10 8 0 -4 6 -3 12 1 12 5 0 15 -6 22 -12 11 -10 13 -10 7 0 -9 16 6 16 23
0 11 -11 12 -10 6 1 -6 10 -2 12 13 7 12 -4 23 -2 28 5 5 8 3 10 -7 5 -8 -5 7
13 34 38 26 25 47 50 47 55 0 6 6 8 14 5 11 -4 14 1 12 20 -2 14 2 26 8 26 7
0 7 3 1 8 -13 9 -18 35 -5 27 5 -3 10 -1 10 5 0 6 4 9 9 5 6 -3 9 23 7 65 -2
38 1 70 6 70 5 0 6 5 2 12 -11 17 -11 327 0 321 5 -4 6 -1 2 6 -13 20 -18 63
-6 56 6 -3 7 0 4 9 -3 9 -10 16 -15 16 -5 0 -9 7 -9 16 0 8 -4 13 -9 10 -11
-7 -9 13 2 32 5 7 3 12 -4 12 -8 0 -8 4 1 15 9 10 9 15 1 15 -13 0 -10 22 4
32 6 5 5 8 -4 8 -11 0 -11 3 -1 15 8 10 9 15 2 15 -6 0 -9 6 -7 13 10 24 12
76 4 71 -5 -3 -9 0 -9 5 0 6 -3 10 -7 10 -20 -3 -26 2 -13 11 13 9 13 11 0 20
-8 5 -11 10 -6 10 6 0 3 6 -6 12 -17 15 -33 53 -18 43 6 -3 10 -2 10 4 0 5 -5
13 -10 16 -6 4 -7 13 -1 23 13 25 13 25 2 55 -7 18 -7 26 -1 22 12 -8 13 -3 1
28 -6 14 -7 28 -3 32 4 4 7 12 7 18 1 7 6 11 13 10 10 -3 15 16 11 44 0 3 7
11 16 16 12 6 20 5 26 -4 7 -12 9 -11 10 1 1 8 1 18 1 21 -1 4 12 6 28 5 21
-2 30 3 32 13 0 9 2 23 2 31 1 8 -3 18 -9 23 -6 4 -1 9 12 13 19 5 41 44 25
44 -4 0 -7 11 -7 24 0 14 5 22 12 19 6 -3 16 5 23 16 7 13 7 21 1 21 -6 0 -8
6 -5 14 3 8 12 12 19 10 9 -4 15 5 17 28 2 18 8 32 14 31 6 -1 11 6 11 15 0
34 3 43 13 37 6 -3 10 -1 10 5 0 6 6 8 13 4 6 -4 3 3 -7 15 -20 22 -20 22 2
28 23 6 23 6 26 69 0 24 8 48 19 58 20 20 22 30 5 20 -10 -6 -10 -5 -1 7 9 11
9 19 2 26 -7 7 -2 16 17 28 21 13 24 19 13 26 -11 7 -11 9 -1 9 7 0 11 3 9 8
-3 4 1 13 9 20 8 7 14 9 14 5 0 -4 6 1 14 12 8 12 13 43 12 75 -1 30 3 58 9
62 6 5 5 8 -3 8 -7 0 -10 5 -7 10 3 6 1 10 -5 10 -6 0 -8 5 -4 12 5 8 2 9 -9
5 -14 -5 -15 -2 -7 18 5 14 6 25 1 25 -11 0 -9 19 2 38 5 7 3 12 -3 12 -8 0
-8 6 0 20 8 15 8 20 -1 20 -8 0 -8 4 1 15 8 10 9 15 2 15 -6 0 -9 7 -6 15 4 8
9 13 13 11 3 -2 12 2 19 10 7 8 9 14 4 14 -5 0 -7 11 -4 25 2 14 0 25 -5 25
-5 0 -15 12 -21 26 -10 20 -10 24 0 18 7 -4 5 2 -6 14 -10 12 -23 19 -27 16
-5 -3 -5 6 1 20 8 21 7 26 -7 26 -9 0 -13 3 -10 7 4 3 -3 11 -16 17 -17 9 -22
21 -23 51 -3 69 -4 76 -12 71 -4 -2 -12 7 -19 20 -6 13 -8 22 -3 19 4 -2 7 33
6 79 0 47 -3 84 -6 84 -20 -1 -26 5 -26 25 1 12 6 25 11 29 7 5 6 8 0 8 -6 0
-11 11 -11 24 0 14 4 22 8 20 4 -3 8 0 8 6 0 6 4 9 9 6 5 -3 8 26 6 64 -1 38
1 68 4 66 14 -9 26 23 26 67 -1 31 4 51 13 56 16 9 24 61 8 61 -6 0 -5 4 2 9
8 4 14 12 14 16 0 4 -6 12 -14 16 -9 6 -5 9 12 9 24 0 26 3 22 35 -4 30 2 40
36 74 22 22 42 37 46 34 3 -3 3 6 0 21 -4 24 4 31 29 27 5 -1 5 4 1 10 -3 6 0
15 7 20 10 6 10 9 2 9 -9 0 -12 17 -9 60 3 33 1 62 -4 65 -5 3 -7 12 -4 20 4
8 9 13 13 11 10 -6 26 17 26 39 0 11 -4 23 -10 27 -6 5 -4 8 5 8 13 0 13 1 0
10 -8 5 -10 10 -5 10 6 0 11 11 11 25 1 16 -2 23 -10 18 -8 -4 -8 -3 1 7 7 8
8 22 3 40 -5 16 -6 31 -3 34 3 3 6 23 7 44 1 34 -1 38 -21 36 -18 -2 -21 1
-15 14 10 22 9 73 -2 91 -6 9 -5 12 1 8 7 -4 10 5 9 22 0 16 -3 29 -6 29 -3 0
-12 0 -20 1 -13 1 -13 2 0 11 10 6 11 10 3 10 -7 0 -13 9 -13 20 0 11 -6 20
-14 20 -9 0 -12 8 -8 25 2 15 0 25 -6 23 -5 -2 -10 1 -10 5 -1 11 -35 36 -42
32 -3 -2 -6 5 -6 16 0 10 3 19 6 19 3 0 3 29 2 65 -2 36 -7 63 -12 60 -11 -7
-20 19 -15 44 3 15 -1 19 -16 16 -20 -4 -35 10 -20 19 13 8 2 46 -13 46 -8 0
-12 13 -11 33 1 18 -5 38 -14 47 -18 17 -25 74 -8 63 6 -4 7 -1 2 8 -14 21
-15 60 -3 53 7 -4 8 -2 4 4 -13 22 -15 52 -3 52 8 0 8 3 2 8 -11 8 -16 52 -5
52 4 0 7 7 7 15 0 8 -3 15 -7 15 -3 0 -6 9 -7 21 -1 14 3 19 13 15 14 -5 18 5
15 33 -2 8 2 10 10 5 8 -5 9 -3 3 7 -15 24 -13 38 7 44 15 5 17 10 9 20 -7 8
-7 15 -1 19 5 4 8 15 6 26 -3 15 2 20 18 20 16 0 18 3 8 9 -9 6 -10 11 -2 15
7 5 8 13 1 25 -7 14 -3 23 16 40 20 17 23 25 14 36 -9 11 -7 18 10 35 12 12
19 28 16 35 -3 8 0 17 6 21 7 4 6 9 -3 14 -10 7 -10 11 0 24 8 9 9 16 3 16 -5
0 -8 9 -5 20 3 11 11 20 19 20 9 0 12 16 10 60 -2 38 1 60 8 60 7 0 7 3 1 8
-14 10 -17 32 -4 32 8 0 8 4 -1 15 -6 8 -9 19 -5 24 4 7 -1 8 -11 4 -12 -4
-15 -3 -10 5 4 7 2 12 -6 12 -9 0 -9 3 2 10 8 5 10 10 4 10 -12 0 -13 38 -1
58 5 7 3 12 -4 12 -8 0 -8 4 1 15 7 8 8 15 3 15 -11 0 -11 29 1 48 4 7 2 12
-6 12 -9 0 -9 3 2 10 13 8 13 10 -1 10 -17 0 -44 47 -29 52 4 2 2 21 -7 43 -8
22 -15 46 -15 53 -1 6 -5 12 -10 12 -5 0 -6 6 -1 13 13 21 11 58 -3 53 -6 -2
-14 5 -17 16 -3 11 -10 17 -16 13 -10 -6 -16 21 -12 53 1 7 -2 12 -6 11 -20
-3 -33 2 -30 14 1 6 -5 12 -13 11 -10 -1 -15 9 -15 30 0 20 -5 30 -13 28 -7
-1 -12 3 -11 10 4 18 -11 59 -19 54 -4 -2 -17 7 -30 20 -12 13 -19 24 -14 24
16 0 9 30 -8 35 -11 4 -16 14 -15 29 2 16 -3 26 -14 29 -13 3 -17 13 -16 35 1
25 -2 30 -18 27 -13 -3 -17 0 -13 11 3 8 2 12 -4 9 -5 -3 -14 4 -20 15 -8 15
-8 20 2 20 10 0 10 2 -1 9 -11 7 -11 9 0 14 12 5 11 7 -1 16 -8 5 -18 7 -24 4
-5 -3 -6 -1 -2 5 3 6 2 22 -4 37 -7 17 -7 24 0 20 6 -3 10 -2 10 4 0 5 -5 13
-10 16 -6 4 -7 11 -4 17 12 18 11 78 0 78 -6 0 0 10 14 23 15 12 24 30 22 40
-2 9 1 17 6 17 15 0 31 55 22 71 -6 8 -4 16 3 21 9 6 8 8 -3 8 -13 0 -13 1 0
10 12 8 12 10 1 10 -11 0 -11 3 0 17 8 9 9 14 2 10 -7 -5 -9 0 -6 13 3 10 10
18 16 17 6 -1 12 11 13 27 2 16 5 35 8 43 3 8 2 12 -2 9 -5 -3 -8 24 -8 59 0
41 4 62 11 58 5 -4 1 4 -10 17 -11 13 -15 21 -9 17 8 -5 11 51 11 193 -1 175
-3 200 -16 198 -11 -2 -16 5 -16 26 0 20 -6 31 -20 37 -13 5 -15 8 -5 8 13 1
13 2 0 11 -9 6 -11 10 -3 10 7 0 10 7 7 15 -4 8 -10 12 -15 9 -5 -3 -12 2 -15
10 -3 9 -15 16 -26 16 -22 0 -70 44 -60 56 4 4 -1 4 -10 1 -9 -3 -27 2 -40 12
-13 10 -29 16 -37 13 -17 -6 -30 14 -26 44 1 16 -2 21 -15 19 -14 -3 -17 4
-16 38 1 33 -3 42 -15 41 -12 -1 -15 4 -11 19 3 12 -1 25 -11 32 -21 15 -28
54 -15 79 7 13 7 16 -1 12 -6 -4 -11 -2 -11 3 0 6 -4 11 -10 11 -15 0 -72 59
-65 69 3 5 -3 8 -12 6 -29 -4 -52 13 -48 35 2 12 -2 20 -9 20 -8 0 -16 9 -19
20 -3 11 -1 20 5 20 5 0 6 5 3 11 -10 16 -12 79 -2 79 4 0 5 5 1 12 -4 7 -7
30 -6 52 3 57 3 50 2 158 -1 53 1 101 5 107 3 6 1 11 -5 11 -8 0 -8 6 0 20 6
11 7 20 2 20 -11 0 -9 53 3 62 6 5 5 8 -3 8 -7 0 -10 4 -7 10 3 5 0 7 -9 4
-11 -4 -14 2 -12 25 1 17 -2 31 -7 31 -5 0 -4 7 3 15 9 11 9 15 1 15 -8 0 -9
5 -3 17 6 9 6 29 2 45 -5 15 -5 28 -1 28 3 0 7 9 7 20 0 11 -4 20 -8 20 -5 0
-4 9 2 20 8 14 8 20 0 20 -8 0 -8 6 0 20 8 15 8 20 -2 20 -10 0 -10 2 1 9 9 6
10 11 2 15 -6 4 -8 12 -5 18 4 6 3 9 -2 6 -5 -3 -14 0 -21 7 -9 10 -9 15 -1
17 7 3 5 10 -6 20 -9 9 -16 22 -16 28 0 7 -7 10 -15 6 -14 -5 -20 9 -16 41 1
7 -7 17 -18 23 -12 6 -18 16 -15 25 3 8 -3 24 -14 36 -16 16 -19 27 -12 45 6
15 6 24 0 24 -11 0 -56 42 -53 50 1 3 -9 10 -23 17 -13 6 -22 8 -19 3 3 -4 -6
-7 -20 -6 -23 1 -29 8 -26 28 0 5 -4 7 -11 5 -6 -1 -14 7 -16 18 -6 29 -33 65
-48 65 -8 0 -14 7 -14 16 0 10 -6 14 -15 10 -8 -3 -15 -1 -15 4 0 5 -7 7 -15
4 -8 -4 -15 -1 -15 6 0 15 -26 41 -34 33 -3 -4 -6 -1 -6 6 0 16 -25 41 -40 41
-6 0 -9 3 -7 8 4 9 -40 52 -47 44 -3 -3 -6 4 -6 16 0 16 -4 20 -17 15 -11 -4
-14 -3 -9 5 4 7 4 12 -1 12 -4 0 -14 4 -22 9 -11 7 -11 13 -1 32 7 13 9 21 5
17 -15 -14 -39 25 -36 58 3 36 -15 78 -29 69 -6 -4 -5 6 1 22 7 19 7 29 0 31
-6 2 -11 10 -11 18 0 9 -4 12 -10 9 -6 -4 -10 11 -10 39 0 37 3 44 18 41 14
-2 17 4 17 36 0 27 -5 41 -16 44 -14 5 -16 25 -16 139 0 73 -3 138 -7 144 -4
7 -3 12 2 12 5 0 7 19 5 42 -3 24 -1 40 3 35 4 -4 14 3 22 15 11 15 12 23 4
26 -14 4 -4 32 20 54 13 11 16 18 7 23 -8 6 -7 10 2 16 10 6 10 9 2 9 -7 0
-10 7 -6 17 5 13 2 15 -11 10 -9 -4 -15 -3 -11 2 3 5 1 12 -5 16 -6 4 -7 12
-3 18 12 19 10 31 -10 49 -11 10 -17 24 -14 32 8 20 -53 72 -63 55 -6 -8 -12
-5 -20 11 -6 12 -14 19 -17 16 -4 -3 -12 -1 -20 5 -9 9 -13 8 -13 0 0 -6 -5
-10 -12 -8 -18 3 -37 21 -31 30 2 4 -3 7 -11 7 -9 0 -16 6 -16 14 0 9 -8 12
-24 9 -26 -5 -70 13 -62 26 3 4 -1 8 -9 8 -8 0 -12 -4 -9 -9 3 -4 0 -8 -5 -8
-6 0 -11 4 -11 8 0 5 -7 9 -15 9 -8 0 -15 -5 -15 -11 0 -6 -4 -4 -10 4 -5 8
-12 12 -15 8 -11 -11 -45 31 -47 56 -1 14 -5 23 -8 21 -3 -2 -12 0 -20 6 -13
7 -13 9 0 9 8 0 0 10 -17 21 -18 12 -33 28 -33 36 0 8 -4 11 -10 8 -5 -3 -10
-2 -10 4 0 6 -7 8 -16 4 -10 -4 -20 1 -26 11 -5 9 -14 13 -20 10 -7 -4 -8 -2
-4 4 4 7 1 12 -6 12 -11 0 -11 2 0 9 10 6 3 18 -27 48 -22 23 -37 43 -34 46 2
3 -14 4 -36 2 -23 -2 -39 0 -36 4 2 5 -6 13 -19 19 -17 8 -23 17 -21 36 3 21
-1 26 -18 26 -18 0 -19 2 -7 10 12 8 12 10 1 10 -10 0 -11 3 -2 14 8 9 8 16 2
20 -7 4 -7 15 -1 31 6 16 6 27 -1 31 -7 4 -6 10 1 19 8 10 7 14 -2 18 -11 4
-11 6 0 6 9 1 10 6 3 20 -6 10 -7 22 -3 26 4 5 0 4 -8 -1 -21 -12 -41 -14 -34
-3 3 5 -2 9 -11 9 -9 0 -13 5 -10 10 3 6 -1 10 -10 10 -9 0 -15 6 -14 13 4 29
-2 47 -15 47 -10 0 -13 8 -10 26 3 14 0 32 -6 39 -7 8 -7 16 -2 19 14 8 12
116 -2 116 -6 0 -5 4 3 9 16 10 8 41 -11 41 -14 0 -18 57 -5 78 5 7 4 12 -2
12 -13 0 -10 22 4 32 6 5 5 8 -3 8 -24 0 -41 25 -30 43 6 11 5 17 -2 17 -5 0
-10 5 -10 11 0 5 6 7 13 3 6 -3 0 4 -15 18 -21 19 -24 27 -16 42 8 14 8 17 -2
11 -9 -6 -9 -3 -1 14 10 18 9 21 -8 21 -10 0 -22 7 -25 16 -3 8 -2 12 4 9 6
-3 10 1 10 9 0 16 -4 18 -51 21 -32 2 -51 13 -44 26 3 5 -1 6 -9 3 -12 -4 -16
0 -16 16 0 11 -4 19 -9 15 -17 -10 -24 16 -22 74 2 49 -1 60 -23 78 -13 12
-27 19 -30 16 -3 -3 -4 4 -1 16 3 15 -11 36 -47 73 -29 29 -56 52 -61 50 -5
-2 -7 4 -4 13 4 9 1 15 -9 15 -8 0 -17 7 -20 15 -4 8 -17 15 -30 15 -14 0 -28
9 -35 21 -6 12 -14 18 -18 13 -7 -10 -57 -11 -66 -2 -4 3 -19 3 -34 -2 -22 -6
-32 -4 -45 11 -9 10 -23 19 -32 19 -20 0 -45 25 -36 36 4 5 -1 2 -10 -5 -15
-11 -20 -11 -32 2 -8 8 -12 17 -9 21 4 3 -8 4 -25 2 -17 -2 -29 0 -27 5 3 4
-1 11 -8 16 -7 4 -16 16 -20 25 -5 14 -11 16 -32 8 -13 -5 -24 -6 -24 -2 4 26
-3 62 -10 57 -5 -3 -12 4 -16 14 -4 12 -12 18 -21 14 -10 -4 -12 0 -8 11 4 10
1 16 -8 16 -8 0 -20 11 -26 25 -6 14 -15 25 -20 25 -9 0 -9 76 1 86 8 8 -15
44 -28 44 -13 0 -13 100 0 101 6 1 14 1 18 0 5 -1 6 3 2 9 -3 5 0 10 7 10 8 0
9 3 3 8 -12 8 -13 41 -2 59 4 6 3 14 -3 18 -6 4 -8 11 -5 16 3 5 -1 6 -9 3
-17 -7 -19 -1 -16 59 1 30 -3 43 -20 54 -18 13 -19 17 -9 25 11 7 11 11 1 15
-6 2 -10 9 -7 14 4 5 -1 6 -10 3 -11 -5 -16 -2 -15 7 5 29 0 50 -10 44 -5 -3
-10 1 -10 9 0 8 -9 17 -20 21 -11 3 -19 12 -17 18 1 7 -4 11 -10 9 -7 -1 -13
5 -13 14 0 8 -4 12 -10 9 -5 -3 -10 0 -10 8 0 18 -21 27 -61 27 -17 0 -32 6
-35 15 -4 8 -10 12 -15 9 -5 -3 -9 1 -9 8 0 10 -2 10 -8 1 -6 -9 -13 -6 -25
11 -12 16 -25 22 -37 19 -14 -4 -23 2 -29 18 -5 13 -10 19 -10 12 -1 -6 -10
-11 -20 -10 -12 1 -17 6 -13 16 3 9 1 12 -6 7 -7 -4 -12 -3 -12 1 0 5 -26 9
-57 8 -45 -1 -62 3 -75 18 -9 10 -21 16 -25 14 -5 -3 -7 9 -5 27 3 27 0 34
-18 39 -15 4 -19 10 -14 19 6 11 5 11 -8 0 -11 -9 -18 -10 -23 -2 -3 6 -12 7
-18 3 -29 -18 -76 4 -61 28 5 8 3 9 -7 3 -20 -12 -40 -14 -33 -3 3 5 -9 12
-26 15 -17 4 -36 14 -43 23 -13 17 -57 24 -57 8 0 -6 -8 -1 -17 10 -21 23 -63
36 -63 20 0 -7 -5 -5 -10 3 -5 8 -10 11 -10 6 0 -4 -9 2 -21 15 -11 13 -18 18
-14 12 9 -19 -10 -15 -28 5 -10 10 -14 22 -10 27 5 4 1 4 -7 -1 -26 -15 -38
-13 -44 8 -3 14 -10 19 -20 15 -17 -7 -18 13 -1 25 6 5 5 8 -3 8 -7 0 -10 5
-7 10 3 6 -1 10 -9 10 -8 0 -18 9 -21 21 -4 11 -13 18 -20 16 -9 -4 -11 3 -5
28 8 36 -2 55 -29 55 -13 0 -13 2 -3 9 18 11 17 17 -13 47 -14 14 -25 30 -25
37 0 7 -4 6 -11 -3 -7 -11 -8 -4 -4 24 4 32 2 41 -16 54 -17 11 -18 16 -8 23
11 7 11 9 1 9 -7 0 -10 5 -7 10 3 6 -1 10 -9 10 -14 0 -22 24 -17 53 0 4 -6 7
-15 7 -8 0 -12 5 -9 10 3 6 1 10 -5 10 -8 0 -8 6 0 20 8 15 8 20 -2 20 -10 0
-10 2 0 9 8 4 13 11 13 15 -2 14 -46 56 -58 56 -8 0 -12 3 -10 8 6 10 -35 46
-58 50 -11 2 -34 19 -52 37 -17 18 -35 30 -39 27 -3 -4 -2 2 4 14 9 18 7 25
-13 43 -14 11 -29 21 -35 21 -5 0 -7 6 -4 13 6 18 -31 51 -47 41 -9 -5 -10 -2
-6 10 4 10 3 15 -3 11 -6 -3 -10 -2 -10 4 0 6 -7 8 -15 5 -8 -4 -23 0 -32 7
-12 10 -15 10 -9 2 12 -21 -4 -15 -26 10 -14 16 -21 19 -25 9 -4 -10 -11 -5
-24 15 -10 15 -19 22 -19 15 0 -8 -5 -10 -12 -6 -7 5 -27 7 -44 5 -22 -2 -35
3 -42 15 -5 9 -16 15 -23 12 -14 -6 -42 16 -33 25 3 3 -11 4 -30 3 -20 -1 -36
3 -36 8 0 5 -3 7 -6 3 -8 -8 -34 18 -34 33 0 6 -4 8 -10 5 -5 -3 -10 -1 -10 5
0 7 -8 9 -20 5 -14 -5 -20 -2 -20 9 0 9 -8 16 -17 16 -10 1 -41 2 -70 4 -33 2
-50 -1 -46 -7 4 -6 1 -7 -7 -2 -8 5 -32 8 -53 6 -22 -1 -36 2 -33 7 3 6 -2 13
-12 17 -28 13 -42 14 -48 4 -3 -5 -18 3 -32 19 -15 16 -36 34 -47 40 -12 7
-14 12 -6 12 10 0 11 3 2 14 -8 10 -9 16 -2 21 7 4 7 12 -1 25 -7 10 -16 16
-20 14 -7 -5 -12 10 -9 29 0 4 -3 6 -8 5 -5 -2 -9 1 -9 6 0 16 -26 25 -44 15
-13 -7 -18 -6 -18 3 0 14 -41 54 -51 51 -4 -1 -9 11 -11 27 -3 17 0 30 5 30 5
0 4 6 -2 14 -9 11 -9 15 1 19 11 4 10 6 0 6 -7 1 -10 6 -7 11 3 6 2 10 -2 10
-13 0 -73 57 -73 69 0 6 -7 11 -16 11 -8 0 -12 5 -9 10 3 6 1 10 -5 10 -7 0
-10 7 -6 15 3 8 -1 20 -9 27 -34 31 -43 36 -49 30 -4 -3 -4 1 0 11 3 10 1 17
-5 17 -17 0 -76 64 -77 83 -3 40 -4 42 -14 27 -8 -12 -10 -12 -10 -1 0 8 -15
28 -32 45 -18 17 -32 34 -31 37 1 3 -8 5 -20 5 -25 -2 -49 12 -42 24 3 5 0 12
-6 16 -8 4 -9 3 -5 -4 5 -8 -2 -11 -21 -10 -34 2 -55 16 -46 32 4 6 0 5 -9 -2
-11 -9 -18 -10 -23 -2 -3 6 -11 8 -16 5 -5 -4 -9 1 -9 9 0 12 -10 16 -35 16
-19 0 -35 5 -35 11 0 5 -4 8 -9 4 -6 -3 -14 3 -20 12 -6 10 -11 13 -11 7 0 -6
-7 -11 -15 -11 -8 0 -12 4 -9 9 3 4 0 8 -6 8 -6 0 -9 4 -6 9 3 5 -1 12 -10 15
-8 3 -13 2 -10 -3 3 -4 -19 -7 -49 -6 -44 2 -58 7 -74 26 -16 19 -22 22 -32
12 -7 -7 -19 -13 -27 -13 -8 0 -10 5 -6 13 5 9 4 9 -6 0 -7 -6 -19 -9 -28 -6
-11 5 -13 3 -7 -7 6 -10 4 -11 -6 -4 -8 4 -21 9 -29 11 -8 1 -19 8 -25 15 -14
19 -35 21 -53 6 -9 -7 -13 -8 -9 -2 4 7 -2 12 -18 12 -14 0 -22 -5 -18 -11 4
-6 1 -7 -8 -1 -19 12 -33 12 -41 -1 -5 -6 -8 -5 -8 3 0 7 -5 10 -11 7 -5 -4
-18 1 -27 12 -17 18 -72 26 -72 10 0 -5 -6 -4 -14 2 -11 9 -15 9 -19 -1 -5
-12 -11 14 -8 34 0 3 -13 3 -29 -2 -16 -5 -29 -5 -29 -2 3 21 -3 32 -17 32 -8
0 -12 5 -9 10 3 6 0 10 -7 10 -10 0 -10 2 -1 8 9 6 7 12 -7 22 -11 8 -20 21
-20 28 0 8 -6 12 -15 9 -16 -7 -29 6 -18 17 4 4 8 14 9 22 1 9 0 13 -3 10 -7
-6 -63 52 -63 66 0 5 6 6 13 2 9 -6 9 -5 0 7 -8 10 -9 19 -3 27 6 7 7 10 4 7
-9 -6 -35 15 -29 24 4 7 -10 11 -47 12 -10 0 -17 6 -15 12 1 7 -3 11 -10 10
-6 -2 -15 7 -18 18 -4 12 -14 19 -24 17 -21 -4 -121 96 -121 120 0 10 -9 24
-19 32 -11 7 -18 17 -15 22 3 4 -3 5 -13 1 -10 -3 -15 -3 -11 1 10 11 -53 66
-66 59 -14 -9 -46 -11 -41 -3 2 3 0 12 -6 20 -7 13 -9 13 -9 0 0 -13 -2 -13
-9 -1 -8 13 -12 13 -27 0 -12 -9 -15 -10 -10 -1 6 9 1 11 -19 8 -17 -3 -28 0
-32 10 -3 7 -9 11 -14 8 -5 -3 -9 -1 -9 5 0 6 -7 8 -15 5 -8 -4 -15 -1 -15 5
0 6 -15 14 -32 19 -18 5 -32 15 -30 21 1 7 -2 10 -7 7 -5 -4 -12 -2 -15 3 -3
5 -20 6 -38 2 -24 -5 -37 -2 -51 12 -10 10 -22 15 -27 12 -6 -4 -10 0 -10 7 0
10 -3 9 -9 -1 -8 -12 -12 -12 -25 -2 -9 8 -16 9 -16 4 0 -5 -7 -10 -15 -10 -8
0 -12 4 -9 9 3 4 0 8 -6 8 -6 0 -9 4 -6 8 7 11 -55 9 -73 -2 -10 -6 -12 -5 -7
2 11 19 -15 14 -33 -5 -16 -18 -57 -24 -78 -10 -6 4 -15 2 -18 -4 -4 -5 -13
-8 -21 -5 -7 3 -17 -1 -21 -8 -12 -18 -41 -27 -47 -13 -3 8 -5 8 -5 -2 -1 -11
-4 -11 -16 -1 -8 7 -15 9 -15 4 0 -12 -73 -11 -82 1 -5 6 -8 4 -8 -5 0 -9 -3
-11 -8 -5 -11 16 -56 51 -49 39 3 -6 0 -11 -8 -11 -8 0 -14 3 -13 6 2 22 -7
27 -46 26 -25 -1 -45 1 -44 4 2 20 -4 31 -17 31 -9 0 -18 7 -21 15 -5 13 -9
13 -22 3 -9 -7 -13 -8 -10 -3 5 9 -22 44 -29 38 -9 -9 -43 -1 -40 9 1 7 -8 13
-21 14 -13 1 -29 7 -35 14 -9 10 -9 11 3 5 12 -7 13 -6 3 7 -7 8 -10 18 -6 21
3 4 -1 7 -10 7 -10 0 -17 4 -17 10 0 5 -16 26 -36 46 -27 26 -33 38 -24 44 9
6 7 10 -9 15 -12 3 -19 10 -16 15 3 5 1 11 -5 15 -6 4 -7 12 -3 18 14 23 11
37 -8 37 -33 0 -61 18 -52 33 2 4 -3 7 -11 7 -9 0 -16 6 -16 13 0 7 -13 12
-30 12 -16 0 -30 -3 -30 -7 0 -11 -34 4 -43 19 -5 7 -12 11 -18 8 -5 -4 -9 1
-9 9 0 8 -8 17 -18 20 -12 4 -18 16 -18 33 1 17 -5 27 -17 29 -10 1 -14 -2
-11 -8 5 -7 2 -8 -7 -2 -8 4 -20 9 -28 11 -8 1 -17 7 -22 14 -9 16 -49 19 -49
5 0 -7 -3 -7 -8 -1 -4 6 -14 10 -22 10 -8 0 -18 -4 -22 -10 -5 -7 -8 -7 -8 0
0 11 -157 12 -167 1 -3 -3 -12 -1 -20 5 -10 9 -13 8 -13 0 0 -7 -5 -9 -12 -5
-16 10 -88 11 -88 1 0 -4 -5 -5 -10 -2 -16 10 -110 12 -110 2 0 -4 -5 -5 -12
-1 -18 11 -128 11 -128 -1 0 -5 -5 -4 -11 2 -12 12 -61 5 -53 -8 4 -8 -10 -11
-32 -8 -4 0 -11 -5 -15 -13 -5 -7 -9 -8 -9 -3 0 15 -43 16 -52 2 -5 -8 -8 -8
-8 -1 0 12 -38 13 -56 1 -6 -3 -14 -3 -18 0 -12 12 -36 12 -36 0 0 -8 -3 -8
-8 -2 -11 15 -32 17 -48 4 -11 -9 -14 -9 -14 0 0 7 -4 9 -10 6 -6 -3 -7 1 -4
9 5 12 0 16 -19 16 -17 0 -42 17 -76 51 -28 28 -51 56 -51 61 0 6 -7 8 -15 4
-19 -7 -47 3 -39 15 5 9 -5 12 -39 12 -10 0 -16 2 -13 4 8 8 -75 84 -85 77 -5
-3 -9 0 -9 5 0 6 -6 11 -14 11 -8 0 -17 7 -20 16 -3 8 -10 13 -14 10 -5 -3
-16 9 -26 25 -10 17 -23 28 -29 26 -17 -6 -49 12 -42 24 4 5 1 9 -4 9 -6 0
-11 -5 -11 -11 0 -8 -5 -7 -16 2 -13 10 -17 10 -25 -2 -5 -8 -9 -9 -9 -2 0 6
-8 9 -19 6 -13 -3 -20 2 -24 17 -5 19 -8 20 -29 9 -13 -6 -20 -8 -16 -4 12 12
-21 38 -42 32 -12 -3 -20 0 -20 7 0 6 -9 17 -20 24 -11 7 -20 8 -20 3 0 -5 -9
-9 -20 -8 -11 1 -20 5 -20 10 0 5 -6 5 -12 0 -16 -13 -48 -13 -48 0 0 5 -6 4
-14 -2 -10 -8 -16 -9 -21 -1 -3 6 -12 7 -18 3 -16 -10 -48 -10 -69 0 -11 4
-18 4 -18 -2 0 -5 -9 -9 -20 -8 -11 1 -20 5 -20 10 0 5 -7 3 -17 -4 -9 -8 -19
-12 -22 -10 -20 12 -51 20 -46 11 3 -6 2 -10 -4 -10 -5 0 -13 5 -16 10 -4 7
-14 6 -28 -2 -12 -6 -24 -10 -27 -8 -22 12 -50 18 -45 9 8 -12 -27 -9 -36 4
-3 4 -15 -2 -26 -12 -11 -11 -24 -17 -27 -14 -3 4 -6 1 -6 -6 0 -6 -6 -11 -12
-10 -25 3 -39 -1 -34 -10 3 -5 -5 -11 -19 -13 -13 -3 -22 -2 -20 2 5 9 -39 5
-54 -5 -6 -3 -11 -1 -11 6 0 8 -4 8 -15 -1 -10 -8 -15 -9 -15 -2 0 6 -7 9 -15
6 -8 -3 -13 -11 -12 -17 1 -7 -8 -11 -21 -10 -16 2 -21 -1 -15 -10 4 -6 -6 -4
-21 7 -16 10 -26 13 -22 8 3 -6 -4 -12 -16 -14 -13 -2 -22 -9 -21 -16 2 -6 -3
-12 -11 -12 -8 0 -16 -6 -18 -12 -3 -7 -21 -13 -41 -14 -25 -1 -35 2 -30 10 4
6 0 5 -9 -2 -9 -7 -22 -11 -29 -10 -18 4 -57 42 -52 51 4 6 -44 12 -74 8 -7
-1 -13 6 -13 15 0 11 -6 15 -20 11 -11 -3 -20 -1 -20 5 0 5 -5 6 -12 2 -8 -5
-9 -2 -5 9 3 10 2 17 -3 17 -5 0 -7 9 -5 20 2 11 0 18 -4 15 -5 -2 -14 2 -21
10 -7 8 -16 13 -20 10 -4 -2 -6 7 -4 20 3 28 -30 55 -39 32 -3 -7 -6 -4 -6 6
-1 10 -5 15 -11 12 -5 -3 -10 -1 -10 5 0 6 -4 8 -10 5 -6 -3 -7 1 -4 9 4 11 0
16 -10 16 -9 0 -21 11 -26 25 -5 14 -12 25 -15 25 -4 0 -3 -4 0 -10 3 -5 -1
-10 -9 -10 -8 0 -19 7 -24 16 -5 9 -21 17 -35 17 -15 0 -25 2 -23 6 9 14 -22
26 -66 27 -30 0 -45 -3 -41 -10 4 -5 -7 -1 -23 11 -32 22 -84 35 -84 21 0 -5
-5 -6 -11 -3 -15 10 -179 11 -179 2 0 -5 -6 -5 -12 -1 -19 12 -48 12 -48 0 0
-7 -3 -7 -8 -1 -4 6 -22 10 -40 11 -18 0 -30 -1 -28 -4z m12157 -7449 c13 -16
12 -17 -3 -4 -17 13 -22 21 -14 21 2 0 10 -8 17 -17z"/>
<path d="M24635 26850 c3 -5 8 -10 11 -10 2 0 4 5 4 10 0 6 -5 10 -11 10 -5 0
-7 -4 -4 -10z"/>
<path d="M2795 7307 c-11 -7 -24 -18 -28 -25 -5 -7 -13 -10 -18 -6 -6 3 -8 -6
-5 -23 2 -15 5 -30 5 -33 2 -9 81 -5 81 3 0 5 5 5 10 2 6 -3 10 -1 10 5 0 6 5
8 10 5 20 -13 4 20 -22 46 -15 15 -24 29 -21 33 9 9 1 6 -22 -7z"/>
<path d="M27780 7313 c0 -7 -7 -13 -15 -13 -11 0 -12 -5 -5 -25 6 -16 6 -25 0
-25 -5 0 -7 -7 -4 -15 7 -18 34 -20 35 -2 0 6 2 25 3 40 1 15 -2 33 -6 40 -6
9 -8 9 -8 0z"/>
<path d="M3840 5847 c-21 -17 -24 -47 -5 -47 9 0 19 8 22 18 4 9 14 22 22 29
14 11 14 12 -4 12 -11 0 -27 -5 -35 -12z"/>
<path d="M5274 4448 c-3 -5 -12 -7 -20 -4 -8 3 -14 2 -15 -2 0 -4 -2 -15 -4
-24 -2 -10 1 -18 6 -18 6 0 8 -4 5 -8 -7 -12 57 -9 70 3 6 6 11 17 11 26 0 18
-44 42 -53 27z"/>
</g>
</svg>
